<svg width="28" height="28" viewBox="0 0 28 28" fill="none" xmlns="http://www.w3.org/2000/svg">
<g id="popup / icon_close_white">
<circle id="Oval 40" cx="13.6667" cy="13.6667" r="10.9722" stroke="white" stroke-width="1.38889"/>
<path id="Combined Shape" fill-rule="evenodd" clip-rule="evenodd" d="M18.2826 8.85461C18.0114 8.58341 17.5717 8.58341 17.3005 8.85461L13.6667 12.4883L10.033 8.85461C9.76181 8.58341 9.32211 8.58341 9.05091 8.85461L8.85449 9.05102C8.5833 9.32222 8.5833 9.76192 8.85449 10.0331L12.4882 13.6669L8.85449 17.3006C8.5833 17.5718 8.5833 18.0115 8.85449 18.2827L9.05091 18.4791C9.32211 18.7503 9.76181 18.7503 10.033 18.4791L13.6667 14.8454L17.3005 18.4791C17.5717 18.7503 18.0114 18.7503 18.2826 18.4791L18.479 18.2827C18.7502 18.0115 18.7502 17.5718 18.479 17.3006L14.8453 13.6669L18.479 10.0331C18.7502 9.76192 18.7502 9.32222 18.479 9.05102L18.2826 8.85461Z" fill="white"/>
</g>
</svg>
