<svg width="18" height="18" viewBox="0 0 18 18" fill="none" xmlns="http://www.w3.org/2000/svg">
<g id="&#233;&#128;&#137;&#228;&#184;&#173;" clip-path="url(#clip0_8514_135985)">
<path id="Vector" d="M9 16.5C11.071 16.5 12.9461 15.6605 14.3033 14.3033C15.6605 12.9461 16.5 11.071 16.5 9C16.5 6.92895 15.6605 5.05395 14.3033 3.6967C12.9461 2.33947 11.071 1.5 9 1.5C6.92895 1.5 5.05395 2.33947 3.6967 3.6967C2.33947 5.05395 1.5 6.92895 1.5 9C1.5 11.071 2.33947 12.9461 3.6967 14.3033C5.05395 15.6605 6.92895 16.5 9 16.5Z" fill="#3D8AF7" stroke="#3D8AF7" stroke-width="2" stroke-linejoin="round"/>
<path id="Vector_2" d="M10.8801 12.82C11.1254 13.0617 11.5414 13.0616 11.808 12.8099C12.064 12.5683 12.064 12.1756 11.808 11.9239L9.3229 9.57795V4.62425C9.3229 4.27185 9.03493 4 8.66163 4C8.28833 4 8.00035 4.28192 8.00035 4.62425V9.71891C8.00035 9.91021 7.98969 10.1015 8.08568 10.1921L10.8801 12.82Z" fill="white"/>
</g>
<defs>
<clipPath id="clip0_8514_135985">
<rect width="18" height="18" fill="white"/>
</clipPath>
</defs>
</svg>
