<svg width="18" height="18" viewBox="0 0 18 18" fill="none" xmlns="http://www.w3.org/2000/svg">
<g id="&#233;&#128;&#137;&#228;&#184;&#173;" clip-path="url(#clip0_8510_135701)">
<path id="Vector" d="M9 16.5C11.071 16.5 12.9461 15.6605 14.3033 14.3033C15.6605 12.9461 16.5 11.071 16.5 9C16.5 6.92895 15.6605 5.05395 14.3033 3.6967C12.9461 2.33947 11.071 1.5 9 1.5C6.92895 1.5 5.05395 2.33947 3.6967 3.6967C2.33947 5.05395 1.5 6.92895 1.5 9C1.5 11.071 2.33947 12.9461 3.6967 14.3033C5.05395 15.6605 6.92895 16.5 9 16.5Z" fill="#3D8AF7" stroke="#3D8AF7" stroke-width="2" stroke-linejoin="round"/>
<path id="SF Icon / checkmark" d="M8.09063 12.8806C8.35171 12.8806 8.55527 12.7788 8.69688 12.5664L12.8388 6.1588C12.945 5.99949 12.9849 5.85788 12.9849 5.7207C12.9849 5.37112 12.7282 5.11888 12.3698 5.11888C12.122 5.11888 11.9715 5.20738 11.821 5.44634L8.07293 11.3849L6.1524 8.95108C6.00637 8.76964 5.85592 8.68999 5.63909 8.68999C5.27622 8.68999 5.01514 8.94665 5.01514 9.30066C5.01514 9.45555 5.06824 9.60158 5.19657 9.75646L7.48881 12.5797C7.65696 12.7877 7.84282 12.8806 8.09063 12.8806Z" fill="white"/>
</g>
<defs>
<clipPath id="clip0_8510_135701">
<rect width="18" height="18" fill="white"/>
</clipPath>
</defs>
</svg>
