<svg width="26" height="24" viewBox="0 0 26 24" fill="none" xmlns="http://www.w3.org/2000/svg">
<path opacity="0.4" d="M16.8541 2H8.47406C4.83406 2 2.66406 4.17 2.66406 7.81V16.18C2.66406 19.83 4.83406 22 8.47406 22H16.8441C20.4841 22 22.6541 19.83 22.6541 16.19V7.81C22.6641 4.17 20.4941 2 16.8541 2Z" fill="#E58E27"/>
<path d="M16.4141 9.75H8.91406C8.50406 9.75 8.16406 9.41 8.16406 9C8.16406 8.59 8.50406 8.25 8.91406 8.25H16.4141C16.8241 8.25 17.1641 8.59 17.1641 9C17.1641 9.41 16.8241 9.75 16.4141 9.75Z" fill="#E58E27"/>
<path d="M16.4141 15.75H8.91406C8.50406 15.75 8.16406 15.41 8.16406 15C8.16406 14.59 8.50406 14.25 8.91406 14.25H16.4141C16.8241 14.25 17.1641 14.59 17.1641 15C17.1641 15.41 16.8241 15.75 16.4141 15.75Z" fill="#E58E27"/>
<path d="M16.4141 12.75H8.91406C8.50406 12.75 8.16406 12.41 8.16406 12C8.16406 11.59 8.50406 11.25 8.91406 11.25H16.4141C16.8241 11.25 17.1641 11.59 17.1641 12C17.1641 12.41 16.8241 12.75 16.4141 12.75Z" fill="#E58E27"/>
<path d="M19.8255 22.904C22.3568 22.904 24.4089 20.8519 24.4089 18.3206C24.4089 15.7893 22.3568 13.7373 19.8255 13.7373C17.2942 13.7373 15.2422 15.7893 15.2422 18.3206C15.2422 20.8519 17.2942 22.904 19.8255 22.904Z" fill="#E58E27"/>
<path d="M21.5256 20.1219C21.466 20.1219 21.4064 20.1081 21.3514 20.0714L19.9306 19.2235C19.5777 19.0127 19.3164 18.5498 19.3164 18.1419V16.2627C19.3164 16.0748 19.4722 15.9189 19.6602 15.9189C19.8481 15.9189 20.0039 16.0748 20.0039 16.2627V18.1419C20.0039 18.3069 20.1414 18.5498 20.2835 18.6323L21.7043 19.4802C21.8693 19.5764 21.9197 19.7873 21.8235 19.9523C21.7547 20.0623 21.6402 20.1219 21.5256 20.1219Z" fill="#714E25"/>
</svg>
