<svg width="24" height="24" viewBox="0 0 24 24" fill="none" xmlns="http://www.w3.org/2000/svg">
<path opacity="0.4" d="M4.33054 18.4789L3.31743 17.0397C2.71877 16.1893 2.91877 14.9968 3.77736 14.3923C5.25741 13.3504 5.1257 11.8778 3.47784 11.1178C2.53456 10.6812 2.11456 9.54606 2.55934 8.59703L3.4041 6.79165C3.77954 5.95258 4.77478 5.59439 5.61385 5.96983L5.81317 6.06187C7.45285 6.8276 8.66306 5.97566 8.50343 4.16803L8.484 3.94935C8.41357 3.03281 9.08646 2.21671 10.003 2.14628L11.9875 1.95996C13.0309 1.86134 13.9579 2.63961 14.0508 3.67488C14.2104 5.4825 15.5523 6.1032 17.0324 5.0613C17.8828 4.46264 19.0753 4.66264 19.6797 5.52124L20.6929 6.9604C21.2915 7.81082 21.0915 9.00333 20.2329 9.60775C18.7529 10.6496 18.8846 12.1223 20.5324 12.8823C21.4815 13.327 21.8957 14.454 21.4509 15.4031L20.6062 17.2084C20.2307 18.0475 19.2355 18.4057 18.3964 18.0303L18.1971 17.9382C16.5574 17.1725 15.3472 18.0244 15.5069 19.8321L15.5263 20.0507C15.5967 20.9673 14.9238 21.7834 14.0073 21.8538L12.0228 22.0401C10.9793 22.1388 10.0524 21.3605 9.95949 20.3252C9.79986 18.5176 8.45794 17.8969 6.97789 18.9388C6.1193 19.5432 4.9292 19.3293 4.33054 18.4789Z" fill="#E58E27"/>
<path d="M12 15.25C13.7949 15.25 15.25 13.7949 15.25 12C15.25 10.2051 13.7949 8.75 12 8.75C10.2051 8.75 8.75 10.2051 8.75 12C8.75 13.7949 10.2051 15.25 12 15.25Z" fill="#E58E27"/>
<path d="M19.6455 15.3046L17.2759 13.9342C16.8221 13.673 16.1117 13.673 15.658 13.9342L13.2655 15.3138C12.3167 15.9555 12.2617 16.0517 12.2617 17.0738V19.5626C12.2617 20.5846 12.3167 20.6855 13.2838 21.3363L15.6534 22.7067C15.8826 22.8396 16.1759 22.9038 16.4646 22.9038C16.7534 22.9038 17.0467 22.8396 17.2713 22.7067L19.6638 21.3271C20.6126 20.6855 20.6676 20.5892 20.6676 19.5671V17.0738C20.6676 16.0517 20.6126 15.9555 19.6455 15.3046Z" fill="#E58E27"/>
<path d="M16.4661 19.8102C17.2888 19.8102 17.9557 19.1433 17.9557 18.3206C17.9557 17.498 17.2888 16.8311 16.4661 16.8311C15.6435 16.8311 14.9766 17.498 14.9766 18.3206C14.9766 19.1433 15.6435 19.8102 16.4661 19.8102Z" fill="#714E25"/>
</svg>
