<svg width="24" height="24" viewBox="0 0 24 24" fill="none" xmlns="http://www.w3.org/2000/svg">
<path d="M12 22C17.5228 22 22 17.5228 22 12C22 6.47715 17.5228 2 12 2C6.47715 2 2 6.47715 2 12C2 17.5228 6.47715 22 12 22Z" fill="#E58E27"/>
<path d="M11.9859 4.50488C7.86424 4.50488 4.50391 7.86522 4.50391 12.0131C4.50391 16.1348 7.86424 19.4951 11.9859 19.4951C16.1076 19.4951 19.4942 16.1348 19.4942 12.0131C19.4942 7.89147 16.1076 4.50488 11.9859 4.50488Z" fill="#714E25"/>
<path d="M14.4054 8.55259C14.5006 8.72828 14.497 8.89664 14.3945 9.05768L13.1647 10.9902C13.15 11.0195 13.15 11.0451 13.1647 11.0671C13.1793 11.089 13.2013 11.1 13.2306 11.1H13.6039C13.7503 11.1 13.8711 11.1513 13.9662 11.2537C14.0614 11.3489 14.109 11.466 14.109 11.6051V11.9126C14.109 12.0443 14.0614 12.1615 13.9662 12.2639C13.8711 12.3591 13.7503 12.4067 13.6039 12.4067H12.7913C12.6962 12.4067 12.6486 12.4579 12.6486 12.5604V12.7031C12.6486 12.7983 12.6962 12.8459 12.7913 12.8459H13.6039C13.7503 12.8459 13.8711 12.8971 13.9662 12.9996C14.0614 13.0948 14.109 13.2119 14.109 13.351V13.6584C14.109 13.7975 14.0614 13.9183 13.9662 14.0208C13.8711 14.1159 13.7503 14.1635 13.6039 14.1635H12.7913C12.6962 14.1635 12.6486 14.2074 12.6486 14.2953V15.2067C12.6486 15.3457 12.5974 15.4665 12.4949 15.569C12.3997 15.6642 12.2826 15.7118 12.1435 15.7118H11.847C11.708 15.7118 11.5872 15.6642 11.4847 15.569C11.3895 15.4665 11.3419 15.3457 11.3419 15.2067V14.2953C11.3419 14.2074 11.298 14.1635 11.2102 14.1635H10.3867C10.2476 14.1635 10.1268 14.1159 10.0243 14.0208C9.92914 13.9183 9.88156 13.7975 9.88156 13.6584V13.351C9.88156 13.2119 9.92914 13.0948 10.0243 12.9996C10.1268 12.8971 10.2476 12.8459 10.3867 12.8459H11.2102C11.298 12.8459 11.3419 12.7983 11.3419 12.7031V12.5604C11.3419 12.4579 11.298 12.4067 11.2102 12.4067H10.3867C10.2476 12.4067 10.1268 12.3591 10.0243 12.2639C9.92914 12.1615 9.88156 12.0443 9.88156 11.9126V11.6051C9.88156 11.466 9.92914 11.3489 10.0243 11.2537C10.1268 11.1513 10.2476 11.1 10.3867 11.1H10.771C10.8002 11.1 10.8222 11.089 10.8368 11.0671C10.8515 11.0378 10.8478 11.0085 10.8259 10.9792L9.60705 9.05768C9.50457 8.89664 9.50091 8.72828 9.59607 8.55259C9.69124 8.37691 9.83398 8.28906 10.0243 8.28906H10.3757C10.566 8.28906 10.7087 8.36958 10.8039 8.53063L11.9239 10.2875C11.9459 10.3168 11.9715 10.3314 12.0008 10.3314C12.0374 10.3314 12.063 10.3168 12.0776 10.2875L13.1866 8.53063C13.2818 8.36958 13.4245 8.28906 13.6149 8.28906H13.9772C14.1675 8.28906 14.3103 8.37691 14.4054 8.55259Z" fill="#E58E27"/>
<path d="M16.5809 13.917H20.4171C22.0901 13.917 23.0846 14.9116 23.0846 16.5799V20.4162C23.0846 22.0845 22.0901 23.0791 20.4217 23.0791H16.5809C14.9126 23.0837 13.918 22.0891 13.918 20.4207V16.5799C13.918 14.9116 14.9126 13.917 16.5809 13.917Z" fill="#E58E27"/>
<path d="M21.1066 19.1783C21.0699 19.0958 21.0058 19.0271 20.9187 18.9904C20.8774 18.9721 20.8316 18.9629 20.7858 18.9629H16.207C16.0191 18.9629 15.8633 19.1187 15.8633 19.3066C15.8633 19.4946 16.0191 19.6504 16.207 19.6504H19.9608L19.1954 20.4158C19.0624 20.5487 19.0624 20.7687 19.1954 20.9016C19.2641 20.9704 19.3512 21.0025 19.4383 21.0025C19.5254 21.0025 19.6124 20.9704 19.6812 20.9016L21.0333 19.5496C21.0654 19.5175 21.0883 19.4808 21.1066 19.4396C21.1433 19.3525 21.1433 19.2608 21.1066 19.1783Z" fill="#714E25"/>
<path d="M15.8908 17.822C15.9274 17.9045 15.9916 17.9733 16.0787 18.01C16.1199 18.0283 16.1612 18.0375 16.207 18.0375H20.7904C20.9783 18.0375 21.1341 17.8816 21.1341 17.6937C21.1341 17.5058 20.9783 17.35 20.7904 17.35H17.0366L17.802 16.5845C17.9349 16.4516 17.9349 16.2316 17.802 16.0987C17.6691 15.9658 17.4491 15.9658 17.3162 16.0987L15.9641 17.4508C15.932 17.4829 15.9091 17.5195 15.8908 17.5608C15.8541 17.6479 15.8541 17.7395 15.8908 17.822Z" fill="#714E25"/>
</svg>
