<svg width="24" height="24" viewBox="0 0 24 24" fill="none" xmlns="http://www.w3.org/2000/svg">
<path opacity="0.4" d="M6.52002 10.55C6.94002 10.96 7.18 11.55 7.12 12.18C7.02999 13.26 6.04002 14.05 4.96002 14.05H3V15.5C3 18.5 5 20.5 8 20.5H17C20 20.5 22 18.5 22 15.5V8.5C22 5.78 20.36 3.88 17.81 3.56C17.55 3.52 17.28 3.5 17 3.5H8C7.74 3.5 7.49 3.50999 7.25 3.54999C4.67 3.84999 3 5.76 3 8.5V9.95001H5.08002C5.64002 9.95001 6.15002 10.17 6.52002 10.55Z" fill="#E58E27"/>
<path d="M1.99979 10.9702V13.0302C1.99979 13.5802 2.43979 14.0302 2.99979 14.0502H4.95981C6.03981 14.0502 7.02978 13.2602 7.11978 12.1802C7.17978 11.5502 6.93981 10.9602 6.51981 10.5502C6.14981 10.1702 5.6398 9.9502 5.0798 9.9502H2.99979C2.43979 9.9702 1.99979 10.4202 1.99979 10.9702Z" fill="#E58E27"/>
<path d="M22.1667 16.227V20.7737C22.1667 21.4703 22.1025 21.9653 21.9375 22.3182C21.9375 22.3228 21.9329 22.332 21.9283 22.3366C21.8275 22.4649 21.6946 22.5291 21.5388 22.5291C21.2958 22.5291 21.0025 22.3687 20.6863 22.0295C20.3104 21.6262 19.7329 21.6582 19.4029 22.0982L18.94 22.7124C18.7567 22.9599 18.5138 23.0837 18.2708 23.0837C18.0279 23.0837 17.785 22.9599 17.6017 22.7124L17.1342 22.0937C16.8088 21.6582 16.2358 21.6262 15.86 22.0249L15.8554 22.0295C15.3375 22.5841 14.8792 22.6666 14.6133 22.3366C14.6088 22.332 14.6042 22.3228 14.6042 22.3182C14.4392 21.9653 14.375 21.4703 14.375 20.7737V16.227C14.375 15.5303 14.4392 15.0353 14.6042 14.6824C14.6042 14.6778 14.6042 14.6732 14.6133 14.6687C14.8746 14.3341 15.3375 14.4166 15.8554 14.9712L15.86 14.9757C16.2358 15.3745 16.8088 15.3424 17.1342 14.907L17.6017 14.2882C17.785 14.0407 18.0279 13.917 18.2708 13.917C18.5138 13.917 18.7567 14.0407 18.94 14.2882L19.4029 14.9024C19.7329 15.3424 20.3104 15.3745 20.6863 14.9712C21.0025 14.632 21.2958 14.4716 21.5388 14.4716C21.6946 14.4716 21.8275 14.5403 21.9283 14.6687C21.9375 14.6732 21.9375 14.6778 21.9375 14.6824C22.1025 15.0353 22.1667 15.5303 22.1667 16.227Z" fill="#E58E27"/>
<path d="M20.3307 18.041H16.6641C16.4761 18.041 16.3203 17.8852 16.3203 17.6973C16.3203 17.5093 16.4761 17.3535 16.6641 17.3535H20.3307C20.5186 17.3535 20.6745 17.5093 20.6745 17.6973C20.6745 17.8852 20.5186 18.041 20.3307 18.041Z" fill="#714E25"/>
<path d="M19.4141 19.6465H16.6641C16.4761 19.6465 16.3203 19.4907 16.3203 19.3027C16.3203 19.1148 16.4761 18.959 16.6641 18.959H19.4141C19.602 18.959 19.7578 19.1148 19.7578 19.3027C19.7578 19.4907 19.602 19.6465 19.4141 19.6465Z" fill="#714E25"/>
</svg>
