<svg width="22" height="22" viewBox="0 0 22 22" fill="none" xmlns="http://www.w3.org/2000/svg">
<path d="M10.9049 10.2927C10.9348 10.2006 11.0652 10.2006 11.0951 10.2927L11.7633 12.3493C11.7767 12.3905 11.8151 12.4184 11.8585 12.4184H14.0209C14.1178 12.4184 14.1581 12.5424 14.0797 12.5993L12.3302 13.8704C12.2952 13.8959 12.2805 13.941 12.2939 13.9822L12.9621 16.0389C12.9921 16.131 12.8866 16.2076 12.8083 16.1507L11.0588 14.8796C11.0237 14.8541 10.9763 14.8541 10.9412 14.8796L9.19174 16.1507C9.11337 16.2076 9.00792 16.131 9.03786 16.0389L9.7061 13.9822C9.71949 13.941 9.70482 13.8959 9.66977 13.8704L7.92029 12.5993C7.84192 12.5424 7.8822 12.4184 7.97907 12.4184H10.1415C10.1849 12.4184 10.2233 12.3905 10.2367 12.3493L10.9049 10.2927Z" stroke="#A7AFBB" stroke-width="1.25"/>
<circle cx="11" cy="13.5" r="6" stroke="#A7AFBB" stroke-width="1.36364"/>
<path d="M8 8L5.18198 5.67726C5.06675 5.58228 5 5.44076 5 5.29143V3.29999C5 3.02385 5.22386 2.79999 5.5 2.79999H16.5C16.7761 2.79999 17 3.02385 17 3.29999V5.29143C17 5.44076 16.9333 5.58228 16.818 5.67726L14 8" stroke="#A7AFBB" stroke-width="1.25"/>
<path d="M5 5.5H17" stroke="#A7AFBB" stroke-width="1.25"/>
</svg>
