<svg width="16" height="16" viewBox="0 0 16 16" fill="none" xmlns="http://www.w3.org/2000/svg">
<g id="&#229;&#174;&#137;&#230;&#137;&#147;">
<g id="Vector">
<mask id="path-1-inside-1_9035_121929" fill="white">
<path d="M4.77853 9.8036L3.25573 11.6396C3.11244 11.503 2.92074 11.4289 2.72281 11.4336C2.52489 11.4383 2.33695 11.5215 2.20033 11.6648C2.06372 11.8081 1.98963 11.9998 1.99435 12.1977C1.99908 12.3956 2.08224 12.5836 2.22553 12.7202L3.28633 13.781C3.43213 13.9274 3.62473 14 3.81673 14C4.00873 14 4.20073 13.928 4.34713 13.781C4.48212 13.6448 4.55953 13.462 4.56333 13.2703C4.56713 13.0786 4.49702 12.8928 4.36753 12.7514L6.20353 11.228L4.77853 9.8036ZM12.1315 2C11.847 1.99947 11.5662 2.06383 11.3103 2.18818C11.0544 2.31253 10.8303 2.49359 10.6549 2.7176L5.25733 9.2264C5.26153 9.23 5.26693 9.2312 5.27113 9.2354L6.77113 10.7354C6.77533 10.7396 6.77713 10.745 6.78073 10.7492L13.2883 5.3522C13.5126 5.17684 13.6939 4.95264 13.8184 4.69666C13.943 4.44069 14.0075 4.15967 14.0071 3.875C14.0067 3.37766 13.8088 2.90084 13.457 2.54928C13.1052 2.19772 12.6283 2.00016 12.1309 2M3.50593 5C3.90376 5 4.28529 4.84197 4.56659 4.56066C4.8479 4.27936 5.00593 3.89783 5.00593 3.5C5.00593 3.10218 4.8479 2.72065 4.56659 2.43934C4.28529 2.15804 3.90376 2 3.50593 2C3.10811 2 2.72658 2.15804 2.44527 2.43934C2.16397 2.72065 2.00593 3.10218 2.00593 3.5C2.00593 3.89783 2.16397 4.27936 2.44527 4.56066C2.72658 4.84197 3.10811 5 3.50593 5Z"/>
</mask>
<path d="M4.77853 9.8036L5.48549 9.09635C5.28652 8.89746 5.01298 8.79158 4.73196 8.80469C4.45093 8.81779 4.18843 8.94866 4.00883 9.1652L4.77853 9.8036ZM3.25573 11.6396L2.56571 12.3634C2.76635 12.5547 3.03739 12.6541 3.31413 12.6379C3.59086 12.6217 3.84847 12.4914 4.02544 12.278L3.25573 11.6396ZM2.22553 12.7202L2.93264 12.0131C2.92701 12.0075 2.92132 12.0019 2.91556 11.9964L2.22553 12.7202ZM3.28633 13.781L3.99489 13.0753L3.99344 13.0739L3.28633 13.781ZM4.34713 13.781L5.05569 14.4867L5.05728 14.4851L4.34713 13.781ZM4.36753 12.7514L3.72898 11.9818C3.51836 12.1566 3.38856 12.41 3.36987 12.6831C3.35117 12.9561 3.44521 13.2249 3.63005 13.4268L4.36753 12.7514ZM6.20353 11.228L6.84208 11.9976C7.05862 11.8179 7.18944 11.5553 7.20246 11.2743C7.21548 10.9932 7.10949 10.7197 6.91049 10.5207L6.20353 11.228ZM12.1297 3C12.6819 3.00103 13.1305 2.55416 13.1315 2.00187C13.1326 1.44959 12.6857 1.00104 12.1334 1.00001L12.1297 3ZM10.6549 2.7176L11.4247 3.35594C11.4307 3.34872 11.4366 3.34141 11.4423 3.33402L10.6549 2.7176ZM5.25733 9.2264L4.48758 8.58806C4.13909 9.0083 4.19204 9.63037 4.60654 9.98566L5.25733 9.2264ZM5.27113 9.2354L5.97824 8.5283L5.27113 9.2354ZM6.77113 10.7354L7.47824 10.0283L6.77113 10.7354ZM6.78073 10.7492L6.02148 11.4C6.37677 11.8145 6.99887 11.8674 7.4191 11.5189L6.78073 10.7492ZM13.2883 5.3522L12.6723 4.56448C12.6648 4.57037 12.6573 4.57637 12.65 4.58247L13.2883 5.3522ZM14.0071 3.875L13.0071 3.87596V3.87638L14.0071 3.875ZM12.1312 1C11.579 0.999827 11.1311 1.4474 11.1309 1.99968C11.1308 2.55197 11.5783 2.99983 12.1306 3L12.1312 1ZM3.50593 5V6V5ZM3.50593 2V1V2ZM2.00593 3.5H1.00593H2.00593ZM4.00883 9.1652L2.48603 11.0012L4.02544 12.278L5.54824 10.442L4.00883 9.1652ZM3.94576 10.9158C3.6105 10.5962 3.16201 10.4228 2.69894 10.4339L2.74669 12.4333C2.67947 12.4349 2.61437 12.4098 2.56571 12.3634L3.94576 10.9158ZM2.69894 10.4339C2.23588 10.445 1.79617 10.6395 1.47655 10.9748L2.92412 12.3548C2.87773 12.4035 2.8139 12.4317 2.74669 12.4333L2.69894 10.4339ZM1.47655 10.9748C1.15693 11.31 0.983582 11.7585 0.994639 12.2216L2.99407 12.1739C2.99567 12.2411 2.97051 12.3062 2.92412 12.3548L1.47655 10.9748ZM0.994639 12.2216C1.0057 12.6847 1.20025 13.1244 1.53551 13.444L2.91556 11.9964C2.96422 12.0428 2.99246 12.1066 2.99407 12.1739L0.994639 12.2216ZM1.51843 13.4273L2.57923 14.4881L3.99344 13.0739L2.93264 12.0131L1.51843 13.4273ZM2.57778 14.4867C2.92166 14.8319 3.37395 15 3.81673 15V13C3.87551 13 3.94261 13.0229 3.99489 13.0753L2.57778 14.4867ZM3.81673 15C4.25889 15 4.71079 14.833 5.05568 14.4867L3.63858 13.0753C3.69068 13.023 3.75858 13 3.81673 13V15ZM5.05728 14.4851C5.37311 14.1665 5.55425 13.7386 5.56314 13.2901L3.56353 13.2505C3.56482 13.1853 3.59112 13.1232 3.63698 13.0769L5.05728 14.4851ZM5.56314 13.2901C5.57202 12.8416 5.40798 12.4069 5.10501 12.076L3.63005 13.4268C3.58606 13.3787 3.56224 13.3156 3.56353 13.2505L5.56314 13.2901ZM5.00608 13.521L6.84208 11.9976L5.56498 10.4584L3.72898 11.9818L5.00608 13.521ZM6.91049 10.5207L5.48549 9.09635L4.07158 10.5109L5.49657 11.9353L6.91049 10.5207ZM12.1334 1.00001C11.6968 0.999189 11.2659 1.09795 10.8732 1.28876L11.7474 3.08759C11.8665 3.02971 11.9972 2.99975 12.1297 3L12.1334 1.00001ZM10.8732 1.28876C10.4806 1.47958 10.1366 1.75743 9.86751 2.10118L11.4423 3.33402C11.524 3.22975 11.6283 3.14547 11.7474 3.08759L10.8732 1.28876ZM9.88518 2.07926L4.48758 8.58806L6.02709 9.86474L11.4247 3.35594L9.88518 2.07926ZM4.60654 9.98566C4.66674 10.0373 4.72098 10.0714 4.75335 10.0905C4.76949 10.1 4.7826 10.1071 4.78906 10.1106C4.79236 10.1124 4.79503 10.1138 4.79582 10.1142C4.79753 10.1151 4.79586 10.1142 4.79508 10.1138C4.79277 10.1126 4.78345 10.1076 4.77155 10.1008C4.75922 10.0938 4.74159 10.0834 4.72091 10.0699C4.67877 10.0424 4.62261 10.0011 4.56403 9.94251L5.97824 8.5283C5.91756 8.46761 5.85914 8.42456 5.81468 8.39552C5.77342 8.36857 5.73858 8.35032 5.73339 8.34756C5.732 8.34682 5.72973 8.34562 5.73084 8.34621C5.73104 8.34632 5.73311 8.34741 5.73581 8.34886C5.74108 8.35169 5.75301 8.35816 5.76799 8.36698C5.79804 8.38467 5.85003 8.41735 5.90812 8.46714L4.60654 9.98566ZM4.56403 9.94251L6.06403 11.4425L7.47824 10.0283L5.97824 8.5283L4.56403 9.94251ZM6.06403 11.4425C6.01444 11.3929 5.9788 11.3466 5.95529 11.3131C5.94361 11.2964 5.93446 11.2823 5.9282 11.2723C5.92211 11.2626 5.91762 11.2551 5.91631 11.2528C5.9157 11.2518 5.91507 11.2508 5.91561 11.2517C5.91585 11.2521 5.91699 11.254 5.91839 11.2564C5.92113 11.261 5.92709 11.2709 5.93493 11.2832C5.95035 11.3074 5.97925 11.3507 6.02148 11.4L7.53999 10.0984C7.58041 10.1456 7.60774 10.1867 7.62168 10.2085C7.62877 10.2197 7.63402 10.2284 7.63605 10.2318C7.63709 10.2336 7.63789 10.2349 7.63776 10.2347C7.63771 10.2346 7.63778 10.2347 7.63765 10.2345C7.63758 10.2344 7.63746 10.2342 7.63732 10.234C7.63704 10.2335 7.63657 10.2327 7.63601 10.2318C7.63281 10.2264 7.61618 10.1981 7.59251 10.1644C7.56737 10.1286 7.52993 10.08 7.47824 10.0283L6.06403 11.4425ZM7.4191 11.5189L13.9267 6.12193L12.65 4.58247L6.14236 9.97947L7.4191 11.5189ZM13.9044 6.13993C14.2484 5.87089 14.5265 5.52692 14.7176 5.13421L12.9192 4.25912C12.8612 4.37835 12.7768 4.48279 12.6723 4.56448L13.9044 6.13993ZM14.7176 5.13421C14.9087 4.74149 15.0077 4.31037 15.0071 3.87363L13.0071 3.87638C13.0073 4.00898 12.9773 4.13988 12.9192 4.25912L14.7176 5.13421ZM15.0071 3.87404C15.0064 3.11171 14.7031 2.38083 14.1639 1.84195L12.7501 3.25661C12.9145 3.42086 13.0069 3.64361 13.0071 3.87596L15.0071 3.87404ZM14.1639 1.84195C13.6247 1.30307 12.8936 1.00025 12.1312 1L12.1306 3C12.363 3.00008 12.5858 3.09237 12.7501 3.25661L14.1639 1.84195ZM3.50593 6C4.16897 6 4.80486 5.73661 5.2737 5.26777L3.85949 3.85356C3.76572 3.94732 3.63854 4 3.50593 4V6ZM5.2737 5.26777C5.74254 4.79893 6.00593 4.16304 6.00593 3.5H4.00593C4.00593 3.63261 3.95325 3.75979 3.85949 3.85356L5.2737 5.26777ZM6.00593 3.5C6.00593 2.83696 5.74254 2.20108 5.2737 1.73224L3.85949 3.14645C3.95325 3.24022 4.00593 3.36739 4.00593 3.5H6.00593ZM5.2737 1.73224C4.80486 1.2634 4.16897 1 3.50593 1V3C3.63854 3 3.76572 3.05268 3.85949 3.14645L5.2737 1.73224ZM3.50593 1C2.84289 1 2.20701 1.2634 1.73817 1.73224L3.15238 3.14645C3.24615 3.05268 3.37333 3 3.50593 3V1ZM1.73817 1.73224C1.26933 2.20108 1.00593 2.83696 1.00593 3.5H3.00593C3.00593 3.36739 3.05861 3.24022 3.15238 3.14645L1.73817 1.73224ZM1.00593 3.5C1.00593 4.16304 1.26933 4.79893 1.73817 5.26777L3.15238 3.85356C3.05861 3.75979 3.00593 3.63261 3.00593 3.5H1.00593ZM1.73817 5.26777C2.20701 5.73661 2.84289 6 3.50593 6V4C3.37333 4 3.24615 3.94732 3.15238 3.85356L1.73817 5.26777Z" fill="#8E9298" mask="url(#path-1-inside-1_9035_121929)"/>
</g>
</g>
</svg>
