<svg width="16" height="16" viewBox="0 0 16 16" fill="none" xmlns="http://www.w3.org/2000/svg">
<g id="close.fill">
<path id="&#244;&#128;&#129;&#161;" d="M8.00322 14.3333C7.134 14.3333 6.31694 14.166 5.55203 13.8313C4.79146 13.501 4.11999 13.0447 3.53762 12.4623C2.95524 11.8799 2.49673 11.2085 2.16208 10.4479C1.83178 9.68298 1.66663 8.86592 1.66663 7.9967C1.66663 7.13183 1.83178 6.31694 2.16208 5.55203C2.49238 4.78712 2.94872 4.11347 3.5311 3.5311C4.11782 2.94872 4.79146 2.49238 5.55203 2.16208C6.31694 1.83178 7.13183 1.66663 7.9967 1.66663C8.86157 1.66663 9.67646 1.83178 10.4414 2.16208C11.2063 2.49238 11.8799 2.94872 12.4623 3.5311C13.0447 4.11347 13.501 4.78712 13.8313 5.55203C14.166 6.31694 14.3333 7.13183 14.3333 7.9967C14.3333 8.86592 14.1681 9.68298 13.8378 10.4479C13.5075 11.2085 13.0512 11.8799 12.4688 12.4623C11.8864 13.0447 11.2128 13.501 10.4479 13.8313C9.68298 14.166 8.86809 14.3333 8.00322 14.3333ZM5.95621 10.6044C6.11702 10.6044 6.24957 10.55 6.35388 10.4414L8.00322 8.78551L9.65908 10.4414C9.75904 10.55 9.88942 10.6044 10.0502 10.6044C10.2067 10.6044 10.3371 10.55 10.4414 10.4414C10.55 10.3284 10.6044 10.1958 10.6044 10.0437C10.6044 9.88725 10.55 9.75904 10.4414 9.65908L8.779 8.00322L10.4479 6.34084C10.5565 6.23654 10.6109 6.10833 10.6109 5.95621C10.6109 5.8041 10.5565 5.67589 10.4479 5.57158C10.3436 5.46293 10.2154 5.40861 10.0633 5.40861C9.9155 5.40861 9.78729 5.46293 9.67863 5.57158L8.00322 7.24048L6.34084 5.5781C6.22784 5.46945 6.09963 5.41512 5.95621 5.41512C5.8041 5.41512 5.67372 5.46945 5.56506 5.5781C5.46076 5.68241 5.40861 5.81062 5.40861 5.96273C5.40861 6.11484 5.46293 6.24305 5.57158 6.34736L7.23396 8.00322L5.57158 9.6656C5.46293 9.77425 5.40861 9.90028 5.40861 10.0437C5.40861 10.1958 5.46076 10.3284 5.56506 10.4414C5.67372 10.55 5.8041 10.6044 5.95621 10.6044Z" fill="#A7AFBB"/>
</g>
</svg>
