<svg width="16" height="16" viewBox="0 0 16 16" fill="none" xmlns="http://www.w3.org/2000/svg">
<g id="close.fill">
<path id="&#244;&#128;&#129;&#161;" d="M8.00322 14.3334C7.134 14.3334 6.31694 14.1661 5.55203 13.8314C4.79146 13.5011 4.11999 13.0448 3.53762 12.4624C2.95524 11.88 2.49673 11.2086 2.16208 10.448C1.83178 9.6831 1.66663 8.86604 1.66663 7.99682C1.66663 7.13195 1.83178 6.31706 2.16208 5.55215C2.49238 4.78724 2.94872 4.11359 3.5311 3.53122C4.11782 2.94884 4.79146 2.4925 5.55203 2.1622C6.31694 1.8319 7.13183 1.66675 7.9967 1.66675C8.86157 1.66675 9.67646 1.8319 10.4414 2.1622C11.2063 2.4925 11.8799 2.94884 12.4623 3.53122C13.0447 4.11359 13.501 4.78724 13.8313 5.55215C14.166 6.31706 14.3333 7.13195 14.3333 7.99682C14.3333 8.86604 14.1681 9.6831 13.8378 10.448C13.5075 11.2086 13.0512 11.88 12.4688 12.4624C11.8864 13.0448 11.2128 13.5011 10.4479 13.8314C9.68298 14.1661 8.86809 14.3334 8.00322 14.3334ZM5.95621 10.6045C6.11702 10.6045 6.24957 10.5501 6.35388 10.4415L8.00322 8.78564L9.65908 10.4415C9.75904 10.5501 9.88942 10.6045 10.0502 10.6045C10.2067 10.6045 10.3371 10.5501 10.4414 10.4415C10.55 10.3285 10.6044 10.1959 10.6044 10.0438C10.6044 9.88737 10.55 9.75916 10.4414 9.6592L8.779 8.00334L10.4479 6.34096C10.5565 6.23666 10.6109 6.10845 10.6109 5.95633C10.6109 5.80422 10.5565 5.67601 10.4479 5.57171C10.3436 5.46305 10.2154 5.40873 10.0633 5.40873C9.9155 5.40873 9.78729 5.46305 9.67863 5.57171L8.00322 7.2406L6.34084 5.57822C6.22784 5.46957 6.09963 5.41525 5.95621 5.41525C5.8041 5.41525 5.67372 5.46957 5.56506 5.57822C5.46076 5.68253 5.40861 5.81074 5.40861 5.96285C5.40861 6.11497 5.46293 6.24318 5.57158 6.34748L7.23396 8.00334L5.57158 9.66572C5.46293 9.77437 5.40861 9.90041 5.40861 10.0438C5.40861 10.1959 5.46076 10.3285 5.56506 10.4415C5.67372 10.5501 5.8041 10.6045 5.95621 10.6045Z" fill="#8E9298"/>
</g>
</svg>
