<svg width="12" height="12" viewBox="0 0 12 12" fill="none" xmlns="http://www.w3.org/2000/svg">
<g id="del">
<path id="Union" fill-rule="evenodd" clip-rule="evenodd" d="M2.6464 1.93942C2.45114 1.74415 2.13456 1.74415 1.93929 1.93942C1.74403 2.13468 1.74403 2.45126 1.93929 2.64652L5.12131 5.82854L1.93932 9.01053C1.74405 9.20579 1.74405 9.52237 1.93932 9.71764C2.13458 9.9129 2.45116 9.9129 2.64642 9.71764L5.82842 6.53565L9.01036 9.71759C9.20562 9.91285 9.52221 9.91285 9.71747 9.71759C9.91273 9.52233 9.91273 9.20575 9.71747 9.01048L6.53552 5.82854L9.71749 2.64657C9.91275 2.45131 9.91275 2.13472 9.71749 1.93946C9.52223 1.7442 9.20565 1.7442 9.01038 1.93946L5.82842 5.12143L2.6464 1.93942Z" fill="#8E9298"/>
</g>
</svg>
