<svg width="16" height="16" viewBox="0 0 16 16" fill="none" xmlns="http://www.w3.org/2000/svg">
<path d="M1.43745 9.00284C1.21592 8.90031 1.04748 8.7154 0.963262 8.48655C0.879043 8.25586 0.890028 8.0087 0.994386 7.78717L3.79555 1.78022C3.89808 1.55869 4.08299 1.39025 4.31185 1.30603C4.5407 1.22182 4.78969 1.2328 5.01122 1.33716L5.33162 1.48546C5.65201 1.63558 5.85157 1.95964 5.84242 2.31299C5.81862 3.12405 6.18478 3.80145 6.81825 4.12368C7.44806 4.44408 8.20419 4.34338 8.83949 3.85272L8.99144 3.73554C9.26424 3.52683 9.62674 3.48655 9.93615 3.63119L10.4634 3.87652C10.6795 3.97721 10.8442 4.1548 10.9303 4.37633L12.7684 9.13649L14.1782 9.79376C15.3225 10.3265 15.8186 11.6905 15.2858 12.8348L14.667 14.1603C14.5114 14.4935 14.18 14.6894 13.8358 14.6894C13.7058 14.6894 13.5758 14.6619 13.4495 14.6033M4.62492 2.16652L1.82375 8.17347L13.8395 13.7758L14.4583 12.4503C14.7787 11.7637 14.4803 10.9453 13.7937 10.625L12.3821 9.96952C12.1807 9.87614 12.0196 9.71137 11.9299 9.50632L11.9226 9.48801L10.0771 4.70955L9.54985 4.46421L9.39789 4.58139C8.93469 4.9384 8.40924 5.15627 7.87464 5.21119C7.36201 5.26429 6.85304 5.17091 6.40082 4.94206C5.94678 4.71138 5.56963 4.3507 5.31148 3.90215C5.04418 3.43895 4.91053 2.8897 4.92517 2.30933L4.62492 2.16652Z" fill="#19191A"/>
<path d="M2.42885 6.38655L14.8569 12.1816L14.47 13.0113L2.04199 7.21617L2.42885 6.38655ZM9.20544 6.94521L11.1571 6.23668L9.20544 6.94521ZM9.20544 7.40292C9.01869 7.40292 8.84293 7.28758 8.77519 7.10083C8.68915 6.86282 8.81181 6.60102 9.04799 6.51497L10.9978 5.80461C11.2358 5.71856 11.4976 5.84122 11.5837 6.0774C11.6697 6.31358 11.5471 6.57722 11.3109 6.66326L9.36106 7.37363C9.31163 7.39377 9.25853 7.40292 9.20544 7.40292ZM10.4193 8.6369L11.7814 8.14074L10.4193 8.6369ZM10.4193 9.0946C10.2325 9.0946 10.0568 8.97926 9.98903 8.79252C9.90298 8.55451 10.0257 8.2927 10.2618 8.20665L11.6221 7.7105C11.8601 7.62445 12.1219 7.74712 12.208 7.98329C12.294 8.2213 12.1714 8.48311 11.9352 8.56916L10.5749 9.06531C10.5255 9.08545 10.4724 9.0946 10.4193 9.0946Z" fill="#19191A"/>
<path d="M0.957707 11.9819H3.99688H0.957707ZM3.99688 12.4396H0.957707C0.705053 12.4396 0.5 12.2345 0.5 11.9819C0.5 11.7292 0.705053 11.5242 0.957707 11.5242H3.99688C4.24954 11.5242 4.45459 11.7292 4.45459 11.9819C4.45459 12.2345 4.24954 12.4396 3.99688 12.4396Z" fill="#19191A"/>
<path d="M0.957707 14.2097H6.99944H0.957707ZM6.99944 14.6674H0.957707C0.705053 14.6674 0.5 14.4623 0.5 14.2097C0.5 13.957 0.705053 13.752 0.957707 13.752H6.99944C7.2521 13.752 7.45715 13.957 7.45715 14.2097C7.45715 14.4623 7.2521 14.6674 6.99944 14.6674Z" fill="#19191A"/>
</svg>
