<svg width="16" height="16" viewBox="0 0 16 16" fill="none" xmlns="http://www.w3.org/2000/svg">
<path fill-rule="evenodd" clip-rule="evenodd" d="M7.74649 1.56906C7.89918 1.47922 8.08801 1.47688 8.24287 1.56292L12.7429 4.06292C12.9016 4.15111 13.0001 4.31842 13.0001 4.5C13.0001 4.68158 12.9016 4.84889 12.7429 4.93708L8.50005 7.2942V10.0314C8.9698 10.0906 9.42672 10.2329 9.84901 10.453C10.2972 10.6866 10.6958 11.0024 11.0248 11.3826L13.7227 9.58397C13.9525 9.4308 14.2629 9.49289 14.4161 9.72265C14.5693 9.95241 14.5072 10.2628 14.2774 10.416L8.2774 14.416C8.10945 14.528 7.89065 14.528 7.7227 14.416L1.7227 10.416C1.49294 10.2628 1.43085 9.95241 1.58403 9.72265C1.7372 9.49289 2.04764 9.4308 2.2774 9.58397L4.97527 11.3826C5.29521 11.0128 5.68113 10.7039 6.11472 10.4721C6.54688 10.2412 7.01656 10.0923 7.50005 10.0314V7V2C7.50005 1.82284 7.5938 1.65891 7.74649 1.56906ZM7.50005 11.0419C7.18157 11.0958 6.87279 11.2009 6.58604 11.3541C6.29823 11.5079 6.03841 11.7071 5.81613 11.9431L7.50005 13.0657V11.0419ZM10.1839 11.9432C9.95454 11.6996 9.6853 11.4954 9.38676 11.3398C9.10763 11.1942 8.80833 11.0941 8.50005 11.042V13.0657L10.1839 11.9432ZM8.50005 6.15024L11.4705 4.5L8.50005 2.84976V6.15024Z" fill="#19191A"/>
</svg>
