<svg width="16" height="16" viewBox="0 0 16 16" fill="none" xmlns="http://www.w3.org/2000/svg">
<g clip-path="url(#clip0_11186_23602)">
<path d="M9.40382 9.41879C9.16107 9.17632 8.85189 9.01125 8.51535 8.94445C8.17882 8.87766 7.83003 8.91214 7.51308 9.04352C7.19614 9.17491 6.92525 9.39731 6.73468 9.68262C6.5441 9.96792 6.44238 10.3033 6.44238 10.6464C6.44238 10.9895 6.5441 11.3249 6.73468 11.6102C6.92525 11.8955 7.19614 12.1179 7.51308 12.2493C7.83003 12.3807 8.17882 12.4152 8.51535 12.3484C8.85189 12.2816 9.16107 12.1165 9.40382 11.8741C9.56515 11.7129 9.69313 11.5215 9.78045 11.3109C9.86778 11.1002 9.91272 10.8745 9.91272 10.6464C9.91272 10.4184 9.86778 10.1926 9.78045 9.98196C9.69313 9.77131 9.56515 9.57994 9.40382 9.41879ZM7.56318 11.2594C7.44167 11.138 7.35889 10.9833 7.32533 10.8148C7.29177 10.6463 7.30892 10.4717 7.37463 10.313C7.44034 10.1542 7.55165 10.0186 7.69447 9.92311C7.83729 9.82766 8.00522 9.77671 8.177 9.77671C8.34879 9.77671 8.51671 9.82766 8.65953 9.92311C8.80236 10.0186 8.91366 10.1542 8.97937 10.313C9.04508 10.4717 9.06224 10.6463 9.02868 10.8148C8.99511 10.9833 8.91234 11.138 8.79082 11.2594C8.62777 11.4217 8.40707 11.5129 8.177 11.5129C7.94694 11.5129 7.72624 11.4217 7.56318 11.2594Z" fill="#ED4949"/>
<path d="M11.5591 1.12688L11.5492 1.117L5.09792 7.56827C4.49071 8.17585 4.07727 8.94982 3.90988 9.79235C3.7425 10.6349 3.82867 11.5081 4.15751 12.3017C4.48635 13.0952 5.0431 13.7734 5.75736 14.2506C6.47161 14.7278 7.31132 14.9825 8.17031 14.9825C9.02929 14.9825 9.869 14.7278 10.5833 14.2506C11.2975 13.7734 11.8543 13.0952 12.1831 12.3017C12.5119 11.5081 12.5981 10.6349 12.4307 9.79235C12.2633 8.94982 11.8499 8.17585 11.2427 7.56827C11.0247 7.36182 10.7763 7.19009 10.5061 7.05909L13.9946 3.57886C14.0782 3.49897 14.1273 3.38958 14.1313 3.27401C14.1344 3.1604 14.0923 3.05021 14.0144 2.96751L12.1737 1.12688C12.0922 1.04592 11.9821 1.00033 11.8672 1C11.7568 1.02031 11.6518 1.06354 11.5591 1.12688ZM13.0833 3.26907L9.53059 6.81685C9.48236 6.8676 9.44678 6.92902 9.42676 6.99611C9.40673 7.0632 9.40282 7.13407 9.41535 7.20295C9.42787 7.27184 9.45648 7.3368 9.49884 7.39254C9.5412 7.44829 9.59611 7.49325 9.65913 7.52378C10.0183 7.68578 10.3467 7.90879 10.6297 8.18291C11.1091 8.66923 11.434 9.28652 11.5633 9.95707C11.6926 10.6276 11.6206 11.3214 11.3564 11.9512C11.0922 12.5809 10.6475 13.1184 10.0785 13.4959C9.5094 13.8734 8.84136 14.0741 8.15846 14.0728C7.47555 14.0714 6.80832 13.868 6.24079 13.4882C5.67325 13.1084 5.23078 12.5691 4.9691 11.9383C4.70742 11.3075 4.63822 10.6134 4.77022 9.94342C4.90223 9.27339 5.22953 8.65741 5.71091 8.17302L11.8557 2.03649L13.0833 3.26907ZM3.27706 2.66102C3.2368 2.70126 3.20487 2.74904 3.18308 2.80163C3.16129 2.85422 3.15008 2.91059 3.15008 2.96751C3.15008 3.02444 3.16129 3.08081 3.18308 3.13339C3.20487 3.18598 3.2368 3.23377 3.27706 3.27401L4.5047 4.50165C4.58611 4.58257 4.69626 4.62795 4.81105 4.62785C4.92584 4.62776 5.03591 4.5822 5.11719 4.50114C5.19846 4.42008 5.24432 4.31013 5.24472 4.19534C5.24513 4.08055 5.20004 3.97028 5.11934 3.88865L3.8917 2.66102C3.85146 2.62076 3.80368 2.58882 3.75109 2.56703C3.6985 2.54525 3.64213 2.53403 3.58521 2.53403C3.52828 2.53403 3.47192 2.54525 3.41933 2.56703C3.36674 2.58882 3.31896 2.62076 3.27871 2.66102H3.27706ZM6.20856 1.70527V3.44044C6.20858 3.55537 6.25425 3.66558 6.33552 3.74684C6.41679 3.8281 6.52701 3.87375 6.64194 3.87375C6.75687 3.87375 6.86709 3.8281 6.94836 3.74684C7.02963 3.66558 7.0753 3.55537 7.07532 3.44044V1.70527C7.0753 1.59035 7.02963 1.48013 6.94836 1.39888C6.86709 1.31762 6.75687 1.27197 6.64194 1.27197C6.52701 1.27197 6.41679 1.31762 6.33552 1.39888C6.25425 1.48013 6.20858 1.59035 6.20856 1.70527ZM1.86816 6.04402C1.86816 6.15896 1.91382 6.26919 1.9951 6.35047C2.07637 6.43174 2.1866 6.4774 2.30154 6.4774H4.03836C4.09528 6.47741 4.15164 6.46621 4.20423 6.44443C4.25682 6.42266 4.30461 6.39074 4.34486 6.35049C4.38511 6.31025 4.41704 6.26247 4.43882 6.20989C4.46061 6.1573 4.47182 6.10094 4.47182 6.04402C4.47182 5.9871 4.46061 5.93074 4.43882 5.87815C4.41704 5.82557 4.38511 5.77779 4.34486 5.73755C4.30461 5.6973 4.25682 5.66538 4.20423 5.64361C4.15164 5.62183 4.09528 5.61063 4.03836 5.61064H2.30319C2.18838 5.61132 2.07839 5.65686 1.9967 5.73752C1.95616 5.77764 1.92394 5.82537 1.90188 5.87796C1.87982 5.93056 1.86837 5.98699 1.86816 6.04402Z" fill="#ED4949"/>
<path d="M4.69116 13.1313C4.44336 13.1313 4.20571 13.2298 4.03049 13.405C3.85527 13.5802 3.75684 13.8179 3.75684 14.0657C3.75684 14.3135 3.85527 14.5511 4.03049 14.7263C4.20571 14.9016 4.44336 15 4.69116 15C4.93896 15 5.1766 14.9016 5.35182 14.7263C5.52704 14.5511 5.62548 14.3135 5.62548 14.0657C5.62548 13.8179 5.52704 13.5802 5.35182 13.405C5.1766 13.2298 4.93896 13.1313 4.69116 13.1313ZM4.69116 14.532C4.57206 14.5249 4.46015 14.4726 4.37833 14.3858C4.2965 14.299 4.25093 14.1842 4.25093 14.0648C4.25093 13.9455 4.2965 13.8307 4.37833 13.7439C4.46015 13.6571 4.57206 13.6048 4.69116 13.5977C4.75484 13.5939 4.81862 13.6032 4.87859 13.6249C4.93856 13.6467 4.99344 13.6805 5.03987 13.7243C5.0863 13.768 5.12329 13.8208 5.14857 13.8794C5.17386 13.9379 5.1869 14.0011 5.1869 14.0648C5.1869 14.1286 5.17386 14.1918 5.14857 14.2503C5.12329 14.3089 5.0863 14.3617 5.03987 14.4054C4.99344 14.4492 4.93856 14.483 4.87859 14.5047C4.81862 14.5265 4.75484 14.5358 4.69116 14.532Z" fill="#ED4949"/>
</g>
<defs>
<clipPath id="clip0_11186_23602">
<rect width="14" height="14" fill="white" transform="translate(1 1)"/>
</clipPath>
</defs>
</svg>
