<svg width="16" height="16" viewBox="0 0 16 16" fill="none" xmlns="http://www.w3.org/2000/svg">
<path d="M7.68899 5.34849V7.58103C7.24456 7.52506 6.78024 7.34296 6.41611 7.06735C6.71508 6.68551 7.0922 6.10122 7.1859 5.34849H7.68899ZM8 1.9C6.29059 1.9 4.9 3.29059 4.9 5C4.9 6.70941 6.29059 8.1 8 8.1C9.70941 8.1 11.1 6.70941 11.1 5C11.1 3.29059 9.7094 1.9 8 1.9ZM9.92417 3.25835C10.3092 3.68591 10.5564 4.26652 10.5941 4.84711H9.25807C9.30744 4.21823 9.64427 3.62652 9.92417 3.25835ZM8.19036 4.84711V2.40762C8.7462 2.4447 9.16745 2.62915 9.54824 2.91857C9.22269 3.34107 8.80746 4.07359 8.75703 4.84711H8.19036ZM7.68899 4.84711H7.20272C7.1527 4.07424 6.73959 3.36002 6.4157 2.93791C6.78021 2.66137 7.2448 2.47556 7.68899 2.41904V4.84711ZM8.19036 5.34848H8.77394C8.86869 6.10169 9.24697 6.70368 9.54782 7.08668C9.16752 7.37512 8.74642 7.55577 8.19036 7.59242V5.34848ZM5.40579 4.84711C5.44247 4.26959 5.68131 3.70656 6.05434 3.28283C6.33095 3.65064 6.65408 4.22115 6.70179 4.84711H5.40579ZM6.05455 6.72817C5.71734 6.35181 5.49077 5.90179 5.42236 5.34848H6.68167C6.59462 5.95056 6.3063 6.40225 6.05455 6.72817ZM10.5774 5.34849C10.5072 5.90518 10.2725 6.37178 9.92396 6.75258C9.6688 6.42542 9.36809 5.95385 9.27837 5.34849H10.5774Z" fill="#24C23D" stroke="#24C23D" stroke-width="0.2"/>
<path d="M3.5 11.5H1.5C0.947715 11.5 0.5 11.0523 0.5 10.5V1.5C0.5 0.947715 0.947715 0.5 1.5 0.5H14.5C15.0523 0.5 15.5 0.947715 15.5 1.5V10.5C15.5 11.0523 15.0523 11.5 14.5 11.5H12.5" stroke="#24C23D" stroke-linecap="round"/>
<rect x="3.5" y="9" width="9" height="1" rx="0.5" fill="#24C23D"/>
<path d="M5 10L6 15" stroke="#24C23D" stroke-linecap="round"/>
<path d="M11 10L10 15" stroke="#24C23D" stroke-linecap="round"/>
<path d="M8 9.5V15" stroke="#24C23D" stroke-linecap="round"/>
<path d="M5.5 11.5H10.5" stroke="#24C23D" stroke-linecap="round"/>
<path d="M6 13.5H10" stroke="#24C23D" stroke-linecap="round"/>
</svg>
