<svg width="16" height="16" viewBox="0 0 16 16" fill="none" xmlns="http://www.w3.org/2000/svg">
<g clip-path="url(#clip0_11172_115398)">
<path d="M7.99821 1.3952C8.85581 1.3952 9.69193 1.55813 10.4833 1.87861C11.3015 2.20984 12.0374 2.69862 12.6676 3.32884C13.2978 3.95906 13.7866 4.69492 14.1178 5.51313C14.4383 6.30449 14.6012 7.14061 14.6012 7.99821C14.6012 8.85581 14.4383 9.69193 14.1178 10.4833C13.7866 11.3015 13.2978 12.0374 12.6676 12.6676C12.0374 13.2978 11.3015 13.7866 10.4833 14.1178C9.69193 14.4383 8.85581 14.6012 7.99821 14.6012C7.14061 14.6012 6.30449 14.4383 5.51313 14.1178C4.69492 13.7866 3.95906 13.2978 3.32884 12.6676C2.69862 12.0374 2.20984 11.3015 1.87861 10.4833C1.55813 9.69193 1.3952 8.85581 1.3952 7.99821C1.3952 7.14061 1.55813 6.30449 1.87861 5.51313C2.20984 4.69492 2.69862 3.95906 3.32884 3.32884C3.95906 2.69862 4.69492 2.20984 5.51313 1.87861C6.30449 1.55634 7.14061 1.3952 7.99821 1.3952ZM7.99821 0.5C6.0789 0.5 4.16138 1.23048 2.69683 2.69503C-0.232275 5.62413 -0.232275 10.3723 2.69683 13.2996C4.16138 14.7641 6.08069 15.4964 8 15.4964C9.91931 15.4964 11.8386 14.7641 13.3032 13.2996C16.2323 10.3705 16.2323 5.62234 13.3032 2.69503C11.8368 1.23048 9.91752 0.5 7.99821 0.5Z" fill="#24C23D"/>
<path d="M6.16662 15.1313L5.61697 14.4241L7.5703 12.9005V10.6517H8.4655V12.8897L10.4206 14.4259L9.86739 15.1295L8.03043 13.6865L6.16662 15.1313ZM14.2503 12.0536L13.407 12.3526L12.5727 10.0179L10.4385 9.31073L10.7196 8.46208L12.8448 9.1657L14.9181 7.79246L15.4123 8.53906L13.4643 9.82994L14.2503 12.0536ZM13.6559 3.18576L13.6917 4.07917L11.2156 4.18301L9.90678 6.0128L9.17808 5.4918L10.4815 3.67096L9.78503 1.28435L10.6444 1.03369L11.2979 3.27707L13.6559 3.18576ZM5.32872 1.03727L6.1899 1.28077L5.51671 3.66558L6.84519 5.47926L6.12365 6.00922L4.80055 4.20271L2.31547 4.12035L2.3459 3.22694L4.68059 3.30392L5.32872 1.03727ZM0.628906 8.88103L1.08009 8.10757L3.2232 9.3537L5.31081 8.51758L5.64383 9.34832L3.56517 10.1809L2.8687 12.5675L2.00931 12.315L2.66459 10.0734L0.628906 8.88103Z" fill="#24C23D"/>
<circle cx="8" cy="8" r="4" fill="#F9FAFC"/>
<path d="M6 6L10 10" stroke="#ED4949" stroke-linecap="round" stroke-linejoin="round"/>
<path d="M10 6L6 10" stroke="#ED4949" stroke-linecap="round" stroke-linejoin="round"/>
</g>
<defs>
<clipPath id="clip0_11172_115398">
<rect width="16" height="16" fill="white"/>
</clipPath>
</defs>
</svg>
