<svg width="16" height="16" viewBox="0 0 16 16" fill="none" xmlns="http://www.w3.org/2000/svg">
<path d="M7.41175 8.6796V14.4683C6.19017 14.3535 4.88874 13.8481 3.90882 13.0588C4.66221 12.1201 5.66967 10.6276 5.86889 8.6796H7.41175ZM8.0002 0.624951C3.93361 0.624951 0.625195 3.93336 0.625195 7.99995C0.625195 12.0665 3.93361 15.375 8.0002 15.375C12.0668 15.375 15.3752 12.0665 15.3752 7.99995C15.3752 3.93336 12.0668 0.624951 8.0002 0.624951ZM12.6709 3.50264C13.7519 4.6254 14.4342 6.21878 14.4895 7.79625H10.8827C10.9568 6.0579 11.9349 4.42532 12.6709 3.50264ZM8.29508 7.79625V1.51404C9.84083 1.58045 10.9791 2.09216 12.0046 2.9061C11.1886 3.92164 10.0764 5.82075 10.0022 7.79625H8.29508ZM7.41175 7.79625H5.9002C5.82681 5.82105 4.72177 3.97388 3.9088 2.95328C4.88902 2.16334 6.19053 1.64686 7.41175 1.53161V7.79625ZM8.29508 8.67958H10.0336C10.2357 10.6277 11.2475 12.1706 12.0045 13.106C10.9794 13.9192 9.84116 14.4198 8.29508 14.4859V8.67958ZM1.51085 7.79625C1.56498 6.22119 2.22628 4.67582 3.27658 3.55955C4.00743 4.48776 4.94761 6.06014 5.01975 7.79625H1.51085ZM3.27659 12.4649C2.32114 11.455 1.68834 10.2241 1.54014 8.67958H4.98367C4.79038 10.3855 3.94675 11.6218 3.27659 12.4649ZM14.4601 8.6796C14.3089 10.2268 13.6557 11.5041 12.6709 12.5217C11.995 11.682 11.117 10.3881 10.9189 8.6796H14.4601Z" fill="#19191A" stroke="#19191A" stroke-width="0.15"/>
<circle cx="8" cy="8" r="4" fill="#F9FAFC"/>
<path d="M6 6L10 10" stroke="#ED4949" stroke-linecap="round" stroke-linejoin="round"/>
<path d="M10 6L6 10" stroke="#ED4949" stroke-linecap="round" stroke-linejoin="round"/>
</svg>
