<svg width="16" height="16" viewBox="0 0 16 16" fill="none" xmlns="http://www.w3.org/2000/svg">
<rect x="0.72168" y="2.62183" width="14.5562" height="10.7563" rx="1.45312" stroke="white" stroke-width="0.84375"/>
<path d="M10.1724 10.6731V5.32715H12.8082L13.5136 6.03252V7.35417L12.9419 7.94075L13.5062 8.49762V10.6731H12.1177V8.5199H11.5683V10.6731H10.1724ZM12.1177 6.44832H11.5683V7.37645H12.1177V6.44832Z" fill="white"/>
<path d="M6.12012 10.6731L7.01112 5.32715H9.11982L10.0108 10.6731H8.51097L8.41444 9.797H7.71649L7.61997 10.6731H6.12012ZM8.14714 7.17597L8.09517 6.72305L8.08032 6.53L8.06547 6.34437L8.05062 6.53L8.03577 6.72305L7.98379 7.17597L7.76104 8.5793H8.36989L8.14714 7.17597Z" fill="white"/>
<path d="M2.48633 5.32715H3.92678L4.27575 8.1635L4.28318 8.20062L4.33515 8.88372L4.35743 9.22527L4.3797 9.56682L4.40198 9.22527L4.43168 8.88372L4.47623 8.20062L4.48365 8.1635L4.84005 5.32715H6.27308L5.28555 10.6731H3.48128L2.48633 5.32715Z" fill="white"/>
</svg>
