<svg width="241" height="240" viewBox="0 0 241 240" fill="none" xmlns="http://www.w3.org/2000/svg">
<g clip-path="url(#clip0_3_283680)">
<path fill-rule="evenodd" clip-rule="evenodd" d="M180.823 199L180.824 195.77C214.724 185.911 239.5 154.6 239.5 117.5C239.5 72.4888 203.031 36 158.045 36C136.357 36 116.649 44.4805 102.053 58.308C93.3245 54.6276 83.7314 52.5928 73.6633 52.5928C33.2563 52.5928 0.5 85.3672 0.5 125.796C0.5 166.226 33.2563 199 73.6633 199C74.5942 199 75.521 198.983 76.4435 198.948L76.4431 199H180.823Z" fill="url(#paint0_linear_3_283680)" fill-opacity="0.04"/>
<g filter="url(#filter0_i_3_283680)">
<path d="M202.398 136.796C205.103 136.796 207.296 134.603 207.296 131.898C207.296 129.193 205.103 127 202.398 127C199.693 127 197.5 129.193 197.5 131.898C197.5 134.603 199.693 136.796 202.398 136.796Z" fill="url(#paint1_radial_3_283680)"/>
</g>
<g opacity="0.5">
<g filter="url(#filter1_i_3_283680)">
<path d="M34.6899 111.224C39.7926 111.224 43.9292 107.087 43.9292 101.984C43.9292 96.8817 39.7926 92.7451 34.6899 92.7451C29.5872 92.7451 25.4507 96.8817 25.4507 101.984C25.4507 107.087 29.5872 111.224 34.6899 111.224Z" fill="url(#paint2_radial_3_283680)"/>
</g>
<g filter="url(#filter2_i_3_283680)">
<path fill-rule="evenodd" clip-rule="evenodd" d="M20.9494 99.3469C20.3136 101.719 25.9205 105.283 33.4728 107.307C41.025 109.331 47.6627 109.048 48.2984 106.675C48.6565 105.339 47.0339 103.624 44.1985 102.02C44.188 102.385 44.1565 102.747 44.1046 103.105C46.2067 104.222 47.3999 105.307 47.1889 106.094C46.7649 107.676 40.8354 107.462 33.945 105.616C27.0546 103.77 21.8124 100.99 22.2364 99.4082C22.4318 98.6787 23.7977 98.3311 25.8886 98.3493C26.019 98.014 26.1677 97.6855 26.3343 97.3666C23.343 97.4078 21.2891 98.0789 20.9494 99.3469Z" fill="url(#paint3_linear_3_283680)"/>
<path fill-rule="evenodd" clip-rule="evenodd" d="M20.9494 99.3469C20.3136 101.719 25.9205 105.283 33.4728 107.307C41.025 109.331 47.6627 109.048 48.2984 106.675C48.6565 105.339 47.0339 103.624 44.1985 102.02C44.188 102.385 44.1565 102.747 44.1046 103.105C46.2067 104.222 47.3999 105.307 47.1889 106.094C46.7649 107.676 40.8354 107.462 33.945 105.616C27.0546 103.77 21.8124 100.99 22.2364 99.4082C22.4318 98.6787 23.7977 98.3311 25.8886 98.3493C26.019 98.014 26.1677 97.6855 26.3343 97.3666C23.343 97.4078 21.2891 98.0789 20.9494 99.3469Z" fill="url(#paint4_linear_3_283680)"/>
</g>
</g>
<path opacity="0.354075" fill-rule="evenodd" clip-rule="evenodd" d="M87.8547 28.1759L87.965 28.5803C88.504 30.5567 90.0789 32.0812 92.0718 32.5557C92.5738 32.6753 92.8839 33.1791 92.7643 33.6811C92.6889 33.9979 92.4541 34.2526 92.1444 34.3533L92.0184 34.3943C90.0733 35.027 88.5574 36.566 87.9542 38.5204L87.9401 38.5663C87.7807 39.0825 87.2332 39.3718 86.717 39.2125C86.4054 39.1163 86.1623 38.8712 86.0686 38.5589C85.4896 36.6288 84.0075 35.1012 82.0959 34.464L81.5757 34.2906C81.0624 34.1195 80.785 33.5647 80.9561 33.0515C81.0561 32.7516 81.2945 32.5184 81.5965 32.4252L81.7971 32.3633C83.7515 31.7601 85.2905 30.2442 85.9233 28.2992L85.9781 28.1306C86.1454 27.6161 86.6982 27.3348 87.2127 27.5021C87.5265 27.6042 87.7679 27.8575 87.8547 28.1759Z" fill="url(#paint5_linear_3_283680)"/>
<g opacity="0.4" filter="url(#filter3_f_3_283680)">
<path d="M122.073 203.915C152.448 203.915 177.073 202.796 177.073 201.415C177.073 200.034 152.448 198.915 122.073 198.915C91.6971 198.915 67.0728 200.034 67.0728 201.415C67.0728 202.796 91.6971 203.915 122.073 203.915Z" fill="#292D41"/>
</g>
<g filter="url(#filter4_i_3_283680)">
<path d="M54.6114 78.7903C52.8961 72.3887 56.6951 65.8087 63.0967 64.0934L145.847 41.9204C152.249 40.2051 158.829 44.0041 160.544 50.4057L188.756 155.692C190.9 163.694 186.151 171.919 178.149 174.063L101.194 194.683C93.1919 196.827 84.9668 192.078 82.8227 184.076L54.6114 78.7903Z" fill="url(#paint6_linear_3_283680)"/>
</g>
<mask id="path-8-outside-1_3_283680" maskUnits="userSpaceOnUse" x="60.7359" y="48.4209" width="122.821" height="140.499" fill="black">
<rect fill="white" x="60.7359" y="48.4209" width="122.821" height="140.499"/>
<path fill-rule="evenodd" clip-rule="evenodd" d="M83.8904 69.6876C83.6421 68.7356 82.6661 68.1678 81.7157 68.4225L69.6881 71.6453C65.4204 72.7888 62.8877 77.1755 64.0312 81.4432L89.3955 176.104C91.1108 182.506 97.6909 186.305 104.092 184.589L170.592 166.771C176.993 165.056 180.792 158.475 179.077 152.074L153.713 57.4132C152.569 53.1454 148.182 50.6128 143.915 51.7563L131.046 55.2045C130.094 55.4596 129.526 56.4354 129.775 57.3891C130.642 60.7123 128.655 64.1276 125.338 65.0165C122.022 65.905 118.632 63.933 117.766 60.6115C117.517 59.6591 116.541 59.0911 115.59 59.3459L97.1702 64.2815C96.2185 64.5365 95.651 65.5119 95.8998 66.4653C96.7668 69.7884 94.78 73.2038 91.4626 74.0927C88.1468 74.9811 84.7571 73.0092 83.8904 69.6876Z"/>
</mask>
<path fill-rule="evenodd" clip-rule="evenodd" d="M83.8904 69.6876C83.6421 68.7356 82.6661 68.1678 81.7157 68.4225L69.6881 71.6453C65.4204 72.7888 62.8877 77.1755 64.0312 81.4432L89.3955 176.104C91.1108 182.506 97.6909 186.305 104.092 184.589L170.592 166.771C176.993 165.056 180.792 158.475 179.077 152.074L153.713 57.4132C152.569 53.1454 148.182 50.6128 143.915 51.7563L131.046 55.2045C130.094 55.4596 129.526 56.4354 129.775 57.3891C130.642 60.7123 128.655 64.1276 125.338 65.0165C122.022 65.905 118.632 63.933 117.766 60.6115C117.517 59.6591 116.541 59.0911 115.59 59.3459L97.1702 64.2815C96.2185 64.5365 95.651 65.5119 95.8998 66.4653C96.7668 69.7884 94.78 73.2038 91.4626 74.0927C88.1468 74.9811 84.7571 73.0092 83.8904 69.6876Z" fill="url(#paint7_linear_3_283680)"/>
<path d="M64.0312 81.4432L64.6108 81.2879L64.0312 81.4432ZM89.3955 176.104L88.816 176.259L89.3955 176.104ZM81.5604 67.8429L69.5328 71.0657L69.8434 72.2248L81.871 69.002L81.5604 67.8429ZM69.5328 71.0657C64.945 72.295 62.2224 77.0107 63.4517 81.5985L64.6108 81.2879C63.553 77.3403 65.8957 73.2826 69.8434 72.2248L69.5328 71.0657ZM63.4517 81.5985L88.816 176.259L89.9751 175.949L64.6108 81.2879L63.4517 81.5985ZM88.816 176.259C90.617 182.981 97.5261 186.97 104.248 185.169L103.937 184.01C97.8557 185.639 91.6046 182.03 89.9751 175.949L88.816 176.259ZM104.248 185.169L170.747 167.35L170.436 166.191L103.937 184.01L104.248 185.169ZM170.747 167.35C177.469 165.549 181.458 158.64 179.656 151.919L178.497 152.229C180.127 158.311 176.518 164.562 170.436 166.191L170.747 167.35ZM179.656 151.919L154.292 57.2579L153.133 57.5685L178.497 152.229L179.656 151.919ZM154.292 57.2579C153.063 52.6701 148.347 49.9475 143.759 51.1768L144.07 52.3359C148.018 51.2781 152.075 53.6208 153.133 57.5685L154.292 57.2579ZM143.759 51.1768L130.891 54.6249L131.201 55.7841L144.07 52.3359L143.759 51.1768ZM129.194 57.5406C129.978 60.5446 128.181 63.6334 125.183 64.4369L125.493 65.5961C129.129 64.6218 131.306 60.88 130.356 57.2376L129.194 57.5406ZM125.183 64.4369C122.188 65.2392 119.129 63.4594 118.346 60.46L117.185 60.7629C118.136 64.4066 121.856 66.5707 125.493 65.5961L125.183 64.4369ZM115.435 58.7663L97.0149 63.7019L97.3255 64.861L115.745 59.9254L115.435 58.7663ZM95.3192 66.6168C96.103 69.6208 94.3061 72.7096 91.3073 73.5131L91.6179 74.6722C95.2539 73.698 97.4307 69.9561 96.4804 66.3138L95.3192 66.6168ZM91.3073 73.5131C88.3131 74.3154 85.2536 72.5356 84.471 69.5362L83.3099 69.8391C84.2606 73.4828 87.9805 75.6468 91.6179 74.6722L91.3073 73.5131ZM118.346 60.46C118.014 59.1855 116.707 58.4254 115.435 58.7663L115.745 59.9254C116.375 59.7568 117.021 60.1327 117.185 60.7629L118.346 60.46ZM97.0149 63.7019C95.7446 64.0423 94.9872 65.3442 95.3192 66.6168L96.4804 66.3138C96.3149 65.6796 96.6924 65.0307 97.3255 64.861L97.0149 63.7019ZM130.891 54.6249C129.62 54.9654 128.862 56.2677 129.194 57.5406L130.356 57.2376C130.19 56.603 130.568 55.9538 131.201 55.7841L130.891 54.6249ZM81.871 69.002C82.4998 68.8336 83.1455 69.2092 83.3099 69.8391L84.471 69.5362C84.1386 68.262 82.8323 67.5021 81.5604 67.8429L81.871 69.002Z" fill="#5F6476" mask="url(#path-8-outside-1_3_283680)"/>
<g filter="url(#filter5_f_3_283680)">
<path d="M91.9437 176.028C91.1155 174.47 92.6503 172.2 94.4115 172.094C100.125 171.75 111.389 169.482 129.915 159.552C150.07 148.75 164.105 144.097 170.779 142.266C173.273 141.582 175.722 143.117 176.391 145.614L179.221 156.176C179.936 158.843 178.353 161.585 175.686 162.3L99.8387 182.623C97.5898 183.225 95.2226 182.196 94.1297 180.14L91.9437 176.028Z" fill="#484E5C" fill-opacity="0.4"/>
</g>
<path d="M88.5 172.501C89.5 180.001 93.2708 182.537 95.8366 183.826C100.327 185.76 102.637 184.978 106.692 183.822C107.335 183.638 108.034 183.439 108.811 183.23L172.592 166.582C180.573 164.433 185.564 155.348 183.5 147.501L181.176 138.441C180.986 137.719 180.232 137.296 179.5 137.501L104.144 158.778C103.391 158.988 102.909 159.72 103 160.501C103.604 165.691 110.5 181.501 101.61 183.863C94.5 185.001 89.5 178.501 88.5 172.501Z" fill="url(#paint8_linear_3_283680)"/>
<path d="M83.0936 59.9374C82.4665 57.5325 83.9042 55.0616 86.3048 54.4183C88.7054 53.7751 91.1598 55.2032 91.7869 57.608L94.0579 66.3168C94.685 68.7217 93.2473 71.1926 90.8467 71.8359C88.4461 72.4791 85.9917 71.051 85.3646 68.6462L83.0936 59.9374Z" fill="url(#paint9_radial_3_283680)"/>
<path d="M83.0936 59.9374C82.4665 57.5325 83.9042 55.0616 86.3048 54.4183C88.7054 53.7751 91.1598 55.2032 91.7869 57.608L94.0579 66.3168C94.685 68.7217 93.2473 71.1926 90.8467 71.8359C88.4461 72.4791 85.9917 71.051 85.3646 68.6462L83.0936 59.9374Z" fill="url(#paint10_radial_3_283680)"/>
<path d="M116.919 50.7739C116.279 48.4135 117.671 45.9687 120.027 45.3133C122.383 44.658 124.811 46.0402 125.451 48.4006L127.842 57.2264C128.482 59.5868 127.09 62.0316 124.734 62.6869C122.378 63.3423 119.949 61.9601 119.31 59.5997L116.919 50.7739Z" fill="url(#paint11_radial_3_283680)"/>
<path d="M116.919 50.7739C116.279 48.4135 117.671 45.9687 120.027 45.3133C122.383 44.658 124.811 46.0402 125.451 48.4006L127.842 57.2264C128.482 59.5868 127.09 62.0316 124.734 62.6869C122.378 63.3423 119.949 61.9601 119.31 59.5997L116.919 50.7739Z" fill="url(#paint12_radial_3_283680)"/>
<g filter="url(#filter6_d_3_283680)">
<path d="M85.6964 100.201L144.297 84.5711C145.757 84.1799 146.593 82.5654 146.164 80.965C145.735 79.3646 144.204 78.3844 142.744 78.7756L84.1435 94.4057C82.6835 94.7969 81.8476 96.4114 82.2764 98.0118C82.7052 99.6122 84.2364 100.592 85.6964 100.201Z" fill="#9DA2B3"/>
</g>
<g opacity="0.4" filter="url(#filter7_d_3_283680)">
<path d="M89.6964 115.201L148.297 99.5711C149.757 99.1799 150.593 97.5654 150.164 95.965C149.735 94.3646 148.204 93.3844 146.744 93.7756L88.1435 109.406C86.6835 109.797 85.8476 111.411 86.2764 113.012C86.7052 114.612 88.2364 115.592 89.6964 115.201Z" fill="#9DA2B3"/>
</g>
<g opacity="0.3" filter="url(#filter8_d_3_283680)">
<path d="M93.9789 131.111L133.261 120.658C134.721 120.266 135.557 118.652 135.128 117.052C134.699 115.451 133.168 114.471 131.708 114.862L92.426 125.316C90.966 125.707 90.13 127.322 90.5589 128.922C90.9877 130.522 92.5189 131.503 93.9789 131.111Z" fill="#9DA2B3"/>
</g>
</g>
<defs>
<filter id="filter0_i_3_283680" x="197.5" y="127" width="9.79592" height="11.7959" filterUnits="userSpaceOnUse" color-interpolation-filters="sRGB">
<feFlood flood-opacity="0" result="BackgroundImageFix"/>
<feBlend mode="normal" in="SourceGraphic" in2="BackgroundImageFix" result="shape"/>
<feColorMatrix in="SourceAlpha" type="matrix" values="0 0 0 0 0 0 0 0 0 0 0 0 0 0 0 0 0 0 127 0" result="hardAlpha"/>
<feOffset dy="2"/>
<feGaussianBlur stdDeviation="4"/>
<feComposite in2="hardAlpha" operator="arithmetic" k2="-1" k3="1"/>
<feColorMatrix type="matrix" values="0 0 0 0 0.583333 0 0 0 0 0.583333 0 0 0 0 0.583333 0 0 0 0.66 0"/>
<feBlend mode="normal" in2="shape" result="effect1_innerShadow_3_283680"/>
</filter>
<filter id="filter1_i_3_283680" x="25.4507" y="90.0785" width="18.4785" height="21.1452" filterUnits="userSpaceOnUse" color-interpolation-filters="sRGB">
<feFlood flood-opacity="0" result="BackgroundImageFix"/>
<feBlend mode="normal" in="SourceGraphic" in2="BackgroundImageFix" result="shape"/>
<feColorMatrix in="SourceAlpha" type="matrix" values="0 0 0 0 0 0 0 0 0 0 0 0 0 0 0 0 0 0 127 0" result="hardAlpha"/>
<feOffset dy="-2.66667"/>
<feGaussianBlur stdDeviation="1.33333"/>
<feComposite in2="hardAlpha" operator="arithmetic" k2="-1" k3="1"/>
<feColorMatrix type="matrix" values="0 0 0 0 0.571563 0 0 0 0 0.663645 0 0 0 0 0.775 0 0 0 0.8 0"/>
<feBlend mode="normal" in2="shape" result="effect1_innerShadow_3_283680"/>
</filter>
<filter id="filter2_i_3_283680" x="20.9002" y="97.3662" width="27.4473" height="11.291" filterUnits="userSpaceOnUse" color-interpolation-filters="sRGB">
<feFlood flood-opacity="0" result="BackgroundImageFix"/>
<feBlend mode="normal" in="SourceGraphic" in2="BackgroundImageFix" result="shape"/>
<feColorMatrix in="SourceAlpha" type="matrix" values="0 0 0 0 0 0 0 0 0 0 0 0 0 0 0 0 0 0 127 0" result="hardAlpha"/>
<feOffset/>
<feGaussianBlur stdDeviation="0.666667"/>
<feComposite in2="hardAlpha" operator="arithmetic" k2="-1" k3="1"/>
<feColorMatrix type="matrix" values="0 0 0 0 1 0 0 0 0 1 0 0 0 0 1 0 0 0 1 0"/>
<feBlend mode="normal" in2="shape" result="effect1_innerShadow_3_283680"/>
</filter>
<filter id="filter3_f_3_283680" x="63.0728" y="194.915" width="118" height="13" filterUnits="userSpaceOnUse" color-interpolation-filters="sRGB">
<feFlood flood-opacity="0" result="BackgroundImageFix"/>
<feBlend mode="normal" in="SourceGraphic" in2="BackgroundImageFix" result="shape"/>
<feGaussianBlur stdDeviation="2" result="effect1_foregroundBlur_3_283680"/>
</filter>
<filter id="filter4_i_3_283680" x="51.6996" y="41.5088" width="137.571" height="154.688" filterUnits="userSpaceOnUse" color-interpolation-filters="sRGB">
<feFlood flood-opacity="0" result="BackgroundImageFix"/>
<feBlend mode="normal" in="SourceGraphic" in2="BackgroundImageFix" result="shape"/>
<feColorMatrix in="SourceAlpha" type="matrix" values="0 0 0 0 0 0 0 0 0 0 0 0 0 0 0 0 0 0 127 0" result="hardAlpha"/>
<feOffset dx="-2.5" dy="1"/>
<feGaussianBlur stdDeviation="3.5"/>
<feComposite in2="hardAlpha" operator="arithmetic" k2="-1" k3="1"/>
<feColorMatrix type="matrix" values="0 0 0 0 0.479167 0 0 0 0 0.479167 0 0 0 0 0.479167 0 0 0 0.6 0"/>
<feBlend mode="normal" in2="shape" result="effect1_innerShadow_3_283680"/>
</filter>
<filter id="filter5_f_3_283680" x="87.0371" y="137.427" width="97.0313" height="50.0429" filterUnits="userSpaceOnUse" color-interpolation-filters="sRGB">
<feFlood flood-opacity="0" result="BackgroundImageFix"/>
<feBlend mode="normal" in="SourceGraphic" in2="BackgroundImageFix" result="shape"/>
<feGaussianBlur stdDeviation="2.33787" result="effect1_foregroundBlur_3_283680"/>
</filter>
<filter id="filter6_d_3_283680" x="76.164" y="75.6895" width="76.1122" height="33.5977" filterUnits="userSpaceOnUse" color-interpolation-filters="sRGB">
<feFlood flood-opacity="0" result="BackgroundImageFix"/>
<feColorMatrix in="SourceAlpha" type="matrix" values="0 0 0 0 0 0 0 0 0 0 0 0 0 0 0 0 0 0 127 0" result="hardAlpha"/>
<feOffset dy="3"/>
<feGaussianBlur stdDeviation="3"/>
<feColorMatrix type="matrix" values="0 0 0 0 0.0855531 0 0 0 0 0.128128 0 0 0 0 0.193727 0 0 0 0.15 0"/>
<feBlend mode="normal" in2="BackgroundImageFix" result="effect1_dropShadow_3_283680"/>
<feBlend mode="normal" in="SourceGraphic" in2="effect1_dropShadow_3_283680" result="shape"/>
</filter>
<filter id="filter7_d_3_283680" x="80.164" y="90.6895" width="76.1122" height="33.5977" filterUnits="userSpaceOnUse" color-interpolation-filters="sRGB">
<feFlood flood-opacity="0" result="BackgroundImageFix"/>
<feColorMatrix in="SourceAlpha" type="matrix" values="0 0 0 0 0 0 0 0 0 0 0 0 0 0 0 0 0 0 127 0" result="hardAlpha"/>
<feOffset dy="3"/>
<feGaussianBlur stdDeviation="3"/>
<feColorMatrix type="matrix" values="0 0 0 0 0.0855531 0 0 0 0 0.128128 0 0 0 0 0.193727 0 0 0 0.15 0"/>
<feBlend mode="normal" in2="BackgroundImageFix" result="effect1_dropShadow_3_283680"/>
<feBlend mode="normal" in="SourceGraphic" in2="effect1_dropShadow_3_283680" result="shape"/>
</filter>
<filter id="filter8_d_3_283680" x="84.4465" y="111.776" width="56.7937" height="28.4209" filterUnits="userSpaceOnUse" color-interpolation-filters="sRGB">
<feFlood flood-opacity="0" result="BackgroundImageFix"/>
<feColorMatrix in="SourceAlpha" type="matrix" values="0 0 0 0 0 0 0 0 0 0 0 0 0 0 0 0 0 0 127 0" result="hardAlpha"/>
<feOffset dy="3"/>
<feGaussianBlur stdDeviation="3"/>
<feColorMatrix type="matrix" values="0 0 0 0 0.0855531 0 0 0 0 0.128128 0 0 0 0 0.193727 0 0 0 0.15 0"/>
<feBlend mode="normal" in2="BackgroundImageFix" result="effect1_dropShadow_3_283680"/>
<feBlend mode="normal" in="SourceGraphic" in2="effect1_dropShadow_3_283680" result="shape"/>
</filter>
<linearGradient id="paint0_linear_3_283680" x1="120" y1="36" x2="120" y2="199" gradientUnits="userSpaceOnUse">
<stop stop-color="white"/>
<stop offset="1" stop-color="white" stop-opacity="0"/>
</linearGradient>
<radialGradient id="paint1_radial_3_283680" cx="0" cy="0" r="1" gradientUnits="userSpaceOnUse" gradientTransform="translate(200.67 127.757) scale(9.38426 9.38427)">
<stop stop-color="#808499"/>
<stop offset="0.476642" stop-color="#444F62"/>
<stop offset="0.740314" stop-color="#293245"/>
<stop offset="1" stop-color="#3F4657"/>
</radialGradient>
<radialGradient id="paint2_radial_3_283680" cx="0" cy="0" r="1" gradientUnits="userSpaceOnUse" gradientTransform="translate(34.6899 96.9494) scale(11.064 11.064)">
<stop stop-color="#EAEDF6"/>
<stop offset="1" stop-color="#AEB9D1"/>
</radialGradient>
<linearGradient id="paint3_linear_3_283680" x1="24.9893" y1="104.044" x2="45.061" y2="106.914" gradientUnits="userSpaceOnUse">
<stop stop-color="#DEEEFF"/>
<stop offset="1" stop-color="#7A97BE"/>
</linearGradient>
<linearGradient id="paint4_linear_3_283680" x1="32.4225" y1="91.4618" x2="46.4553" y2="93.6035" gradientUnits="userSpaceOnUse">
<stop stop-color="#C7E7FF"/>
<stop offset="1" stop-color="#6FC1FF"/>
</linearGradient>
<linearGradient id="paint5_linear_3_283680" x1="88.4417" y1="29.5634" x2="85.674" y2="37.7368" gradientUnits="userSpaceOnUse">
<stop offset="0.000928759" stop-color="#BBD3EB"/>
<stop offset="1" stop-color="#CED9E8"/>
</linearGradient>
<linearGradient id="paint6_linear_3_283680" x1="145.731" y1="60.975" x2="60.0486" y2="179.119" gradientUnits="userSpaceOnUse">
<stop stop-color="#070707"/>
<stop offset="0.639706" stop-color="#232528"/>
<stop offset="1" stop-color="#3A404A"/>
</linearGradient>
<linearGradient id="paint7_linear_3_283680" x1="106.801" y1="61.7008" x2="137.342" y2="175.68" gradientUnits="userSpaceOnUse">
<stop stop-color="#7C8192"/>
<stop offset="0.313209" stop-color="#6A6E7D"/>
<stop offset="1" stop-color="#545A6F"/>
</linearGradient>
<linearGradient id="paint8_linear_3_283680" x1="136.483" y1="149.144" x2="146.76" y2="184.275" gradientUnits="userSpaceOnUse">
<stop stop-color="#7C8192"/>
<stop offset="0.313209" stop-color="#6A6E7D"/>
<stop offset="1" stop-color="#545A6F"/>
</linearGradient>
<radialGradient id="paint9_radial_3_283680" cx="0" cy="0" r="1" gradientUnits="userSpaceOnUse" gradientTransform="translate(89.7653 55.7025) rotate(80.7635) scale(19.0041 10.6225)">
<stop stop-color="white"/>
<stop offset="0.27468" stop-color="#45B0FF"/>
<stop offset="0.553576" stop-color="#1289F9"/>
<stop offset="0.883872" stop-color="#26A2FD"/>
</radialGradient>
<radialGradient id="paint10_radial_3_283680" cx="0" cy="0" r="1" gradientUnits="userSpaceOnUse" gradientTransform="translate(90.3425 57.9157) rotate(-98.7349) scale(5.75227 4.95917)">
<stop stop-color="#B8E5FF"/>
<stop offset="1" stop-color="#58AFFF" stop-opacity="0"/>
</radialGradient>
<radialGradient id="paint11_radial_3_283680" cx="0" cy="0" r="1" gradientUnits="userSpaceOnUse" gradientTransform="translate(122.595 46.2655) rotate(80.1337) scale(19.0013 10.4542)">
<stop stop-color="white"/>
<stop offset="0.27468" stop-color="#45B0FF"/>
<stop offset="0.553576" stop-color="#1289F9"/>
<stop offset="0.883872" stop-color="#26A2FD"/>
</radialGradient>
<radialGradient id="paint12_radial_3_283680" cx="0" cy="0" r="1" gradientUnits="userSpaceOnUse" gradientTransform="translate(123.193 48.4731) rotate(-99.3726) scale(5.75125 4.88073)">
<stop stop-color="#B8E5FF"/>
<stop offset="1" stop-color="#58AFFF" stop-opacity="0"/>
</radialGradient>
<clipPath id="clip0_3_283680">
<rect width="240" height="240" fill="white" transform="translate(0.5)"/>
</clipPath>
</defs>
</svg>
