<svg width="12" height="12" viewBox="0 0 12 12" fill="none"><g clip-path="url(#clip0_1717_51276)"><path d="M0.687737 0.74699H2.11309V0.416309C2.11309 0.276625 2.32831 0.162598 2.46942 0.162598H9.54057C9.68026 0.162598 9.89691 0.276625 9.89691 0.416309V0.745565H11.3223C11.6187 0.745565 11.8439 1.11758 11.8439 1.41405V3.00902C11.8439 4.35312 10.9061 5.48057 9.66173 5.797C9.21987 7.0399 8.14801 7.99346 6.78537 8.2771V9.30905H7.00488C7.15169 9.30905 7.36834 9.34469 7.36834 9.49292V10.2826H8.53143C8.67824 10.2826 8.72812 10.3496 8.72812 10.4465V11.5525C8.72812 11.6495 8.67824 11.8376 8.53143 11.8376H3.47714C3.33033 11.8376 3.28044 11.6509 3.28044 11.5525V10.4436C3.28044 10.3467 3.33033 10.2797 3.47714 10.2797H4.64165V9.49007C4.64165 9.34326 4.85688 9.3062 5.00512 9.3062H5.22462V8.27425C3.86484 7.98918 2.79298 7.03847 2.34969 5.79272C1.10394 5.47772 0.167486 4.35027 0.167486 3.00759V1.4112C0.167486 1.11758 0.392691 0.74699 0.687737 0.74699ZM9.89691 4.44292V4.86482C10.6452 4.53129 11.2581 3.78155 11.2581 2.91209V1.32996H9.89691V4.44292ZM4.46348 3.47653L5.08921 4.088C5.11914 4.11794 5.1334 4.15927 5.12627 4.20203L4.97946 5.06437C4.96093 5.16984 5.07353 5.24966 5.16903 5.19978L6.00428 4.76219L6.83954 5.2012C6.8823 5.22401 6.93504 5.21973 6.97495 5.19122C7.01486 5.16272 7.03481 5.11425 7.02626 5.06579L6.87945 4.20346C6.87232 4.16212 6.88515 4.11936 6.91651 4.08943L7.54508 3.47796C7.58072 3.44375 7.59355 3.39243 7.57787 3.34397C7.56219 3.29694 7.52228 3.2613 7.47239 3.2556L6.60721 3.13017C6.56587 3.12447 6.52881 3.09739 6.51028 3.0589L6.12259 2.27496C6.10121 2.23078 6.0556 2.20227 6.00571 2.20227C5.95582 2.20227 5.91164 2.23078 5.88883 2.27496L5.50114 3.0589C5.48261 3.09739 5.44555 3.12304 5.40421 3.13017L4.53903 3.2556C4.42927 3.27128 4.38794 3.40384 4.46348 3.47653ZM0.751879 2.91352C0.751879 3.78298 1.36478 4.53271 2.11309 4.86624V1.32996H0.751879V2.91352Z" fill="#C5CEE6"></path></g><defs><clipPath id="clip0_1717_51276"><rect width="12" height="12" fill="white" transform="matrix(-1 0 0 1 12 0)"></rect></clipPath></defs></svg>