<svg width="14" height="15" viewBox="0 0 14 15" fill="none" xmlns="http://www.w3.org/2000/svg">
<g id="icon/&#231;&#155;&#152;&#229;&#143;&#163;&#230;&#149;&#153;&#231;&#168;&#139;">
<g id="Union">
<path fill-rule="evenodd" clip-rule="evenodd" d="M4.96364 1.82727V2.99091H9.03637V1.82727H4.96364ZM4.81819 0.954544C4.41653 0.954544 4.09091 1.28016 4.09091 1.68182L2.78182 1.68182C1.89817 1.68182 1.18182 2.39816 1.18182 3.28182V12.4455C1.18182 13.3291 1.89817 14.0455 2.78182 14.0455H11.2182C12.1018 14.0455 12.8182 13.3291 12.8182 12.4455V3.28182C12.8182 2.39816 12.1018 1.68182 11.2182 1.68182L9.9091 1.68182C9.9091 1.28016 9.58349 0.954544 9.18182 0.954544H4.81819ZM9.9091 2.55454V3.13636C9.9091 3.53802 9.58349 3.86363 9.18182 3.86363H4.81819C4.41653 3.86363 4.09091 3.53802 4.09091 3.13636V2.55454H2.78182C2.38016 2.55454 2.05455 2.88016 2.05455 3.28182V12.4455C2.05455 12.8471 2.38016 13.1727 2.78182 13.1727H11.2182C11.6198 13.1727 11.9455 12.8471 11.9455 12.4455V3.28182C11.9455 2.88016 11.6198 2.55454 11.2182 2.55454H9.9091ZM8.93461 5.9581L7.87279 8.06719H8.50552V8.63446H7.58188L7.39279 9.00537V9.38355H8.50552V9.95082H7.39279V11.1363H6.60734V9.95082H5.49461V9.38355H6.60734V9.00537L6.41824 8.63446H5.49461V8.06719H6.12734L5.05824 5.9581H5.91643L7.00734 8.24173L8.0837 5.9581H8.93461Z" fill="white"/>
<path d="M4.96364 2.99091H4.91364V3.04091H4.96364V2.99091ZM4.96364 1.82727V1.77727H4.91364V1.82727H4.96364ZM9.03637 2.99091V3.04091H9.08637V2.99091H9.03637ZM9.03637 1.82727H9.08637V1.77727H9.03637V1.82727ZM4.09091 1.68182V1.73182H4.14091V1.68182H4.09091ZM2.78182 1.68182V1.73182V1.68182ZM11.2182 1.68182V1.73182V1.68182ZM9.9091 1.68182H9.8591V1.73182H9.9091V1.68182ZM9.9091 2.55454V2.50454H9.8591V2.55454H9.9091ZM4.09091 2.55454H4.14091V2.50454H4.09091V2.55454ZM7.87279 8.06719L7.82813 8.0447L7.79164 8.11719H7.87279V8.06719ZM8.93461 5.9581L8.97927 5.98058L9.01576 5.90809H8.93461V5.9581ZM8.50552 8.06719H8.55552V8.01719H8.50552V8.06719ZM8.50552 8.63446V8.68446H8.55552V8.63446H8.50552ZM7.58188 8.63446V8.58446H7.55125L7.53734 8.61175L7.58188 8.63446ZM7.39279 9.00537L7.34824 8.98266L7.34279 8.99336V9.00537H7.39279ZM7.39279 9.38355H7.34279V9.43355H7.39279V9.38355ZM8.50552 9.38355H8.55552V9.33355H8.50552V9.38355ZM8.50552 9.95082V10.0008H8.55552V9.95082H8.50552ZM7.39279 9.95082V9.90082H7.34279V9.95082H7.39279ZM7.39279 11.1363V11.1863H7.44279V11.1363H7.39279ZM6.60734 11.1363H6.55733V11.1863H6.60734V11.1363ZM6.60734 9.95082H6.65734V9.90082H6.60734V9.95082ZM5.49461 9.95082H5.44461V10.0008H5.49461V9.95082ZM5.49461 9.38355V9.33355H5.44461V9.38355H5.49461ZM6.60734 9.38355V9.43355H6.65734V9.38355H6.60734ZM6.60734 9.00537H6.65734V8.99336L6.65188 8.98266L6.60734 9.00537ZM6.41824 8.63446L6.46279 8.61175L6.44888 8.58446H6.41824V8.63446ZM5.49461 8.63446H5.44461V8.68446H5.49461V8.63446ZM5.49461 8.06719V8.01719H5.44461V8.06719H5.49461ZM6.12734 8.06719V8.11719H6.20874L6.17193 8.04458L6.12734 8.06719ZM5.05824 5.9581V5.90809H4.97684L5.01365 5.9807L5.05824 5.9581ZM5.91643 5.9581L5.96154 5.93654L5.94795 5.90809H5.91643V5.9581ZM7.00734 8.24173L6.96222 8.26328L7.00764 8.35836L7.05256 8.26305L7.00734 8.24173ZM8.0837 5.9581V5.90809H8.05199L8.03847 5.93678L8.0837 5.9581ZM5.01364 2.99091V1.82727H4.91364V2.99091H5.01364ZM9.03637 2.94091H4.96364V3.04091H9.03637V2.94091ZM8.98637 1.82727V2.99091H9.08637V1.82727H8.98637ZM4.96364 1.87727H9.03637V1.77727H4.96364V1.87727ZM4.14091 1.68182C4.14091 1.30777 4.44414 1.00454 4.81819 1.00454V0.904544C4.38891 0.904544 4.04091 1.25254 4.04091 1.68182H4.14091ZM4.09091 1.63182L2.78182 1.63182V1.73182L4.09091 1.73182V1.63182ZM2.78182 1.63182C1.87055 1.63182 1.13182 2.37055 1.13182 3.28182H1.23182C1.23182 2.42578 1.92578 1.73182 2.78182 1.73182V1.63182ZM1.13182 3.28182V12.4455H1.23182V3.28182H1.13182ZM1.13182 12.4455C1.13182 13.3567 1.87055 14.0955 2.78182 14.0955V13.9955C1.92578 13.9955 1.23182 13.3015 1.23182 12.4455H1.13182ZM2.78182 14.0955H11.2182V13.9955H2.78182V14.0955ZM11.2182 14.0955C12.1295 14.0955 12.8682 13.3567 12.8682 12.4455H12.7682C12.7682 13.3015 12.0742 13.9955 11.2182 13.9955V14.0955ZM12.8682 12.4455V3.28182H12.7682V12.4455H12.8682ZM12.8682 3.28182C12.8682 2.37055 12.1295 1.63182 11.2182 1.63182V1.73182C12.0742 1.73182 12.7682 2.42578 12.7682 3.28182H12.8682ZM11.2182 1.63182L9.9091 1.63182V1.73182L11.2182 1.73182V1.63182ZM9.18182 1.00454C9.55587 1.00454 9.8591 1.30777 9.8591 1.68182H9.9591C9.9591 1.25254 9.6111 0.904544 9.18182 0.904544V1.00454ZM4.81819 1.00454H9.18182V0.904544H4.81819V1.00454ZM9.8591 2.55454V3.13636H9.9591V2.55454H9.8591ZM9.8591 3.13636C9.8591 3.51041 9.55587 3.81363 9.18182 3.81363V3.91363C9.6111 3.91363 9.9591 3.56564 9.9591 3.13636H9.8591ZM9.18182 3.81363H4.81819V3.91363H9.18182V3.81363ZM4.81819 3.81363C4.44414 3.81363 4.14091 3.51041 4.14091 3.13636H4.04091C4.04091 3.56564 4.38891 3.91363 4.81819 3.91363V3.81363ZM4.14091 3.13636V2.55454H4.04091V3.13636H4.14091ZM2.78182 2.60454H4.09091V2.50454H2.78182V2.60454ZM2.10455 3.28182C2.10455 2.90777 2.40778 2.60454 2.78182 2.60454V2.50454C2.35255 2.50454 2.00455 2.85254 2.00455 3.28182H2.10455ZM2.10455 12.4455V3.28182H2.00455V12.4455H2.10455ZM2.78182 13.1227C2.40778 13.1227 2.10455 12.8195 2.10455 12.4455H2.00455C2.00455 12.8747 2.35255 13.2227 2.78182 13.2227V13.1227ZM11.2182 13.1227H2.78182V13.2227H11.2182V13.1227ZM11.8955 12.4455C11.8955 12.8195 11.5922 13.1227 11.2182 13.1227V13.2227C11.6475 13.2227 11.9955 12.8747 11.9955 12.4455H11.8955ZM11.8955 3.28182V12.4455H11.9955V3.28182H11.8955ZM11.2182 2.60454C11.5922 2.60454 11.8955 2.90777 11.8955 3.28182H11.9955C11.9955 2.85254 11.6475 2.50454 11.2182 2.50454V2.60454ZM9.9091 2.60454H11.2182V2.50454H9.9091V2.60454ZM7.91745 8.08967L8.97927 5.98058L8.88995 5.93561L7.82813 8.0447L7.91745 8.08967ZM8.50552 8.01719H7.87279V8.11719H8.50552V8.01719ZM8.55552 8.63446V8.06719H8.45552V8.63446H8.55552ZM7.58188 8.68446H8.50552V8.58446H7.58188V8.68446ZM7.43734 9.02808L7.62643 8.65717L7.53734 8.61175L7.34824 8.98266L7.43734 9.02808ZM7.44279 9.38355V9.00537H7.34279V9.38355H7.44279ZM8.50552 9.33355H7.39279V9.43355H8.50552V9.33355ZM8.55552 9.95082V9.38355H8.45552V9.95082H8.55552ZM7.39279 10.0008H8.50552V9.90082H7.39279V10.0008ZM7.44279 11.1363V9.95082H7.34279V11.1363H7.44279ZM6.60734 11.1863H7.39279V11.0863H6.60734V11.1863ZM6.55733 9.95082V11.1363H6.65734V9.95082H6.55733ZM5.49461 10.0008H6.60734V9.90082H5.49461V10.0008ZM5.44461 9.38355V9.95082H5.54461V9.38355H5.44461ZM6.60734 9.33355H5.49461V9.43355H6.60734V9.33355ZM6.55733 9.00537V9.38355H6.65734V9.00537H6.55733ZM6.3737 8.65717L6.56279 9.02808L6.65188 8.98266L6.46279 8.61175L6.3737 8.65717ZM5.49461 8.68446H6.41824V8.58446H5.49461V8.68446ZM5.44461 8.06719V8.63446H5.54461V8.06719H5.44461ZM6.12734 8.01719H5.49461V8.11719H6.12734V8.01719ZM5.01365 5.9807L6.08274 8.08979L6.17193 8.04458L5.10284 5.93549L5.01365 5.9807ZM5.91643 5.90809H5.05824V6.0081H5.91643V5.90809ZM7.05245 8.22018L5.96154 5.93654L5.87131 5.97965L6.96222 8.26328L7.05245 8.22018ZM8.03847 5.93678L6.96211 8.22041L7.05256 8.26305L8.12893 5.97941L8.03847 5.93678ZM8.93461 5.90809H8.0837V6.0081H8.93461V5.90809Z" fill="white"/>
</g>
</g>
</svg>
