<svg width="181" height="180" viewBox="0 0 181 180" fill="none" xmlns="http://www.w3.org/2000/svg">
    <g clip-path="url(#clip0_0_35843)">
        <path fill-rule="evenodd" clip-rule="evenodd" d="M44.508 149.25L44.5073 146.828C19.0821 139.433 0.5 115.95 0.5 88.125C0.5 54.3666 27.8515 27 61.5913 27C77.857 27 92.638 33.3604 103.585 43.731C110.132 40.9707 117.326 39.4446 124.878 39.4446C155.183 39.4446 179.75 64.0254 179.75 94.3473C179.75 124.669 155.183 149.25 124.878 149.25C124.179 149.25 123.484 149.237 122.792 149.211L122.793 149.25H44.508Z" fill="url(#paint0_linear_0_35843)" fill-opacity="0.04"/>
        <g opacity="0.4" filter="url(#filter0_f_0_35843)">
            <path d="M89.093 152.828C111.875 152.828 130.343 151.989 130.343 150.953C130.343 149.918 111.875 149.078 89.093 149.078C66.3113 149.078 47.843 149.918 47.843 150.953C47.843 151.989 66.3113 152.828 89.093 152.828Z" fill="#292D41"/>
        </g>
        <g filter="url(#filter1_i_0_35843)">
            <path d="M166.25 103.125C167.907 103.125 169.25 101.782 169.25 100.125C169.25 98.4681 167.907 97.125 166.25 97.125C164.593 97.125 163.25 98.4681 163.25 100.125C163.25 101.782 164.593 103.125 166.25 103.125Z" fill="url(#paint1_radial_0_35843)"/>
        </g>
        <g opacity="0.5">
            <g filter="url(#filter2_i_0_35843)">
                <path d="M14.3644 78.0939C18.2712 78.0939 21.4382 74.9268 21.4382 71.0201C21.4382 67.1133 18.2712 63.9463 14.3644 63.9463C10.4577 63.9463 7.29065 67.1133 7.29065 71.0201C7.29065 74.9268 10.4577 78.0939 14.3644 78.0939Z" fill="url(#paint2_radial_0_35843)"/>
            </g>
            <g filter="url(#filter3_i_0_35843)">
                <path fill-rule="evenodd" clip-rule="evenodd" d="M3.84404 68.9999C3.3573 70.8165 7.6501 73.5451 13.4323 75.0944C19.2145 76.6437 24.2964 76.4271 24.7832 74.6106C25.0573 73.5873 23.815 72.2747 21.6442 71.0465C21.6361 71.3258 21.612 71.6035 21.5723 71.8776C23.1817 72.7326 24.0952 73.5628 23.9337 74.1659C23.6091 75.3772 19.0693 75.2133 13.7938 73.7997C8.51834 72.3861 4.50483 70.2582 4.82941 69.0469C4.97906 68.4884 6.02482 68.2223 7.62563 68.2362C7.72552 67.9794 7.83933 67.728 7.96691 67.4838C5.67667 67.5153 4.10417 68.0292 3.84404 68.9999Z" fill="url(#paint3_linear_0_35843)"/>
            </g>
        </g>
        <g filter="url(#filter4_i_0_35843)">
            <path fill-rule="evenodd" clip-rule="evenodd" d="M33.2568 52.5284C33.2568 49.6289 35.6073 47.2784 38.5068 47.2784L142.757 47.2784C145.656 47.2784 148.007 49.6289 148.007 52.5284L148.007 126.028C148.007 128.928 145.656 131.278 142.757 131.278L38.5068 131.278C35.6073 131.278 33.2568 128.928 33.2568 126.028L33.2568 52.5284ZM81.5003 88.4999C81.5003 91.1923 79.3177 93.3749 76.6253 93.3749C73.9329 93.3749 71.7503 91.1923 71.7503 88.4999C71.7503 85.8075 73.9329 83.6249 76.6253 83.6249C79.3177 83.6249 81.5003 85.8075 81.5003 88.4999ZM104.375 93.3749C107.068 93.3749 109.25 91.1923 109.25 88.4999C109.25 85.8075 107.068 83.6249 104.375 83.6249C101.683 83.6249 99.5003 85.8075 99.5003 88.4999C99.5003 91.1923 101.683 93.3749 104.375 93.3749Z" fill="url(#paint4_linear_0_35843)"/>
        </g>
        <path fill-rule="evenodd" clip-rule="evenodd" d="M41.5069 51.7788C39.4358 51.7788 37.7569 53.4578 37.7569 55.5288L37.7569 123.029C37.7569 125.1 39.4358 126.779 41.5069 126.779L82.7569 126.779C84.828 126.779 86.5069 125.1 86.5069 123.029L86.5069 55.5288C86.5069 53.4578 84.828 51.7788 82.7569 51.7788L41.5069 51.7788ZM75.8752 94.1253C78.5676 94.1253 80.7502 91.9427 80.7502 89.2503C80.7502 86.5579 78.5676 84.3753 75.8752 84.3753C73.1828 84.3753 71.0002 86.5579 71.0002 89.2503C71.0002 91.9426 73.1828 94.1253 75.8752 94.1253Z" fill="url(#paint5_linear_0_35843)"/>
        <mask id="mask0_0_35843" style="mask-type:alpha" maskUnits="userSpaceOnUse" x="71" y="84" width="10" height="11">
            <circle cx="75.8754" cy="89.25" r="4.875" fill="url(#paint6_linear_0_35843)"/>
        </mask>
        <g mask="url(#mask0_0_35843)">
            <circle cx="76.6254" cy="88.5" r="4.875" fill="url(#paint7_linear_0_35843)"/>
        </g>
        <path fill-rule="evenodd" clip-rule="evenodd" d="M98.5071 51.7788C96.4361 51.7788 94.7571 53.4578 94.7571 55.5288L94.7571 123.029C94.7571 125.1 96.4361 126.779 98.5071 126.779L139.757 126.779C141.828 126.779 143.507 125.1 143.507 123.029L143.507 55.5288C143.507 53.4578 141.828 51.7788 139.757 51.7788L98.5071 51.7788ZM105.125 94.1253C107.818 94.1253 110 91.9427 110 89.2503C110 86.5579 107.818 84.3753 105.125 84.3753C102.433 84.3753 100.25 86.5579 100.25 89.2503C100.25 91.9426 102.433 94.1253 105.125 94.1253Z" fill="url(#paint8_linear_0_35843)"/>
        <mask id="mask1_0_35843" style="mask-type:alpha" maskUnits="userSpaceOnUse" x="100" y="84" width="11" height="11">
            <circle cx="105.125" cy="89.25" r="4.875" fill="url(#paint9_linear_0_35843)"/>
        </mask>
        <g mask="url(#mask1_0_35843)">
            <circle cx="104.375" cy="88.5" r="4.875" fill="url(#paint10_linear_0_35843)"/>
        </g>
        <g style="mix-blend-mode:soft-light" opacity="0.8" filter="url(#filter5_f_0_35843)">
            <path d="M90.1254 130.125C116.842 130.125 138.5 127.607 138.5 124.5C138.5 121.393 116.842 118.875 90.1254 118.875C63.4086 118.875 41.7504 121.393 41.7504 124.5C41.7504 127.607 63.4086 130.125 90.1254 130.125Z" fill="#A5A8B2"/>
        </g>
        <circle cx="90.5004" cy="127.124" r="13.5" fill="url(#paint11_linear_0_35843)"/>
        <g filter="url(#filter6_i_0_35843)">
            <circle cx="90.5004" cy="126.374" r="13.5" fill="url(#paint12_radial_0_35843)"/>
            <circle cx="90.5004" cy="126.374" r="13.5" fill="url(#paint13_radial_0_35843)"/>
        </g>
        <g filter="url(#filter7_dii_0_35843)">
            <path d="M95.7504 123.375H96.5004C96.6993 123.375 96.89 123.454 97.0307 123.594C97.1713 123.735 97.2504 123.926 97.2504 124.125V130.125C97.2504 131.367 96.243 132.375 95.0004 132.375H86.0004C84.7577 132.375 83.7504 131.367 83.7504 130.125L83.7504 124.125C83.7504 123.926 83.8294 123.735 83.97 123.594C84.1107 123.454 84.3015 123.375 84.5004 123.375H85.2504V122.625C85.2504 121.935 85.3862 121.252 85.65 120.615C85.9138 119.978 86.3005 119.4 86.7881 118.912C87.2756 118.425 87.8543 118.038 88.4913 117.774C89.1282 117.51 89.8109 117.375 90.5004 117.375C91.1898 117.375 91.8725 117.51 92.5095 117.774C93.1464 118.038 93.7252 118.425 94.2127 118.912C94.7002 119.4 95.0869 119.978 95.3507 120.615C95.6146 121.252 95.7504 121.935 95.7504 122.625V123.375ZM94.2504 123.375V122.625C94.2504 121.63 93.8553 120.676 93.152 119.973C92.4488 119.27 91.4949 118.875 90.5004 118.875C89.5058 118.875 88.552 119.27 87.8487 119.973C87.1455 120.676 86.7504 121.63 86.7504 122.625V123.375H94.2504ZM89.7504 126.375V129.375H91.2504V126.375H89.7504Z" fill="url(#paint14_linear_0_35843)"/>
        </g>
        <path opacity="0.3" fill-rule="evenodd" clip-rule="evenodd" d="M114.881 7.2753L114.966 7.58494C115.378 9.09812 116.584 10.2653 118.11 10.6286C118.494 10.7201 118.732 11.1059 118.64 11.4903C118.582 11.7328 118.403 11.9277 118.165 12.0049L118.069 12.0362C116.58 12.5207 115.419 13.699 114.957 15.1953L114.947 15.2305C114.825 15.6257 114.405 15.8471 114.01 15.7252C113.772 15.6516 113.585 15.4639 113.514 15.2248C113.07 13.7471 111.936 12.5775 110.472 12.0896L110.074 11.9568C109.681 11.8259 109.468 11.4011 109.599 11.0082C109.676 10.7786 109.859 10.6001 110.09 10.5287L110.243 10.4813C111.74 10.0195 112.918 8.85885 113.402 7.36967L113.444 7.24063C113.573 6.84674 113.996 6.63129 114.39 6.75943C114.63 6.8376 114.815 7.03151 114.881 7.2753Z" fill="url(#paint15_linear_0_35843)"/>
    </g>
    <defs>
        <filter id="filter0_f_0_35843" x="44.843" y="146.078" width="88.5" height="9.75" filterUnits="userSpaceOnUse" color-interpolation-filters="sRGB">
            <feFlood flood-opacity="0" result="BackgroundImageFix"/>
            <feBlend mode="normal" in="SourceGraphic" in2="BackgroundImageFix" result="shape"/>
            <feGaussianBlur stdDeviation="1.5" result="effect1_foregroundBlur_0_35843"/>
        </filter>
        <filter id="filter1_i_0_35843" x="163.25" y="97.125" width="6" height="7.5" filterUnits="userSpaceOnUse" color-interpolation-filters="sRGB">
            <feFlood flood-opacity="0" result="BackgroundImageFix"/>
            <feBlend mode="normal" in="SourceGraphic" in2="BackgroundImageFix" result="shape"/>
            <feColorMatrix in="SourceAlpha" type="matrix" values="0 0 0 0 0 0 0 0 0 0 0 0 0 0 0 0 0 0 127 0" result="hardAlpha"/>
            <feOffset dy="1.5"/>
            <feGaussianBlur stdDeviation="3"/>
            <feComposite in2="hardAlpha" operator="arithmetic" k2="-1" k3="1"/>
            <feColorMatrix type="matrix" values="0 0 0 0 0.583333 0 0 0 0 0.583333 0 0 0 0 0.583333 0 0 0 0.66 0"/>
            <feBlend mode="normal" in2="shape" result="effect1_innerShadow_0_35843"/>
        </filter>
        <filter id="filter2_i_0_35843" x="7.29065" y="62.4463" width="14.1476" height="15.6475" filterUnits="userSpaceOnUse" color-interpolation-filters="sRGB">
            <feFlood flood-opacity="0" result="BackgroundImageFix"/>
            <feBlend mode="normal" in="SourceGraphic" in2="BackgroundImageFix" result="shape"/>
            <feColorMatrix in="SourceAlpha" type="matrix" values="0 0 0 0 0 0 0 0 0 0 0 0 0 0 0 0 0 0 127 0" result="hardAlpha"/>
            <feOffset dy="-1.5"/>
            <feGaussianBlur stdDeviation="0.75"/>
            <feComposite in2="hardAlpha" operator="arithmetic" k2="-1" k3="1"/>
            <feColorMatrix type="matrix" values="0 0 0 0 0.571563 0 0 0 0 0.663645 0 0 0 0 0.775 0 0 0 0.8 0"/>
            <feBlend mode="normal" in2="shape" result="effect1_innerShadow_0_35843"/>
        </filter>
        <filter id="filter3_i_0_35843" x="3.8064" y="67.4839" width="21.0144" height="8.64453" filterUnits="userSpaceOnUse" color-interpolation-filters="sRGB">
            <feFlood flood-opacity="0" result="BackgroundImageFix"/>
            <feBlend mode="normal" in="SourceGraphic" in2="BackgroundImageFix" result="shape"/>
            <feColorMatrix in="SourceAlpha" type="matrix" values="0 0 0 0 0 0 0 0 0 0 0 0 0 0 0 0 0 0 127 0" result="hardAlpha"/>
            <feOffset/>
            <feGaussianBlur stdDeviation="0.375"/>
            <feComposite in2="hardAlpha" operator="arithmetic" k2="-1" k3="1"/>
            <feColorMatrix type="matrix" values="0 0 0 0 1 0 0 0 0 1 0 0 0 0 1 0 0 0 1 0"/>
            <feBlend mode="normal" in2="shape" result="effect1_innerShadow_0_35843"/>
        </filter>
        <filter id="filter4_i_0_35843" x="31.3818" y="47.2783" width="116.625" height="84.75" filterUnits="userSpaceOnUse" color-interpolation-filters="sRGB">
            <feFlood flood-opacity="0" result="BackgroundImageFix"/>
            <feBlend mode="normal" in="SourceGraphic" in2="BackgroundImageFix" result="shape"/>
            <feColorMatrix in="SourceAlpha" type="matrix" values="0 0 0 0 0 0 0 0 0 0 0 0 0 0 0 0 0 0 127 0" result="hardAlpha"/>
            <feOffset dx="-1.875" dy="0.75"/>
            <feGaussianBlur stdDeviation="2.625"/>
            <feComposite in2="hardAlpha" operator="arithmetic" k2="-1" k3="1"/>
            <feColorMatrix type="matrix" values="0 0 0 0 0.266667 0 0 0 0 0.266667 0 0 0 0 0.266667 0 0 0 0.6 0"/>
            <feBlend mode="normal" in2="shape" result="effect1_innerShadow_0_35843"/>
        </filter>
        <filter id="filter5_f_0_35843" x="29.7504" y="106.875" width="120.75" height="35.25" filterUnits="userSpaceOnUse" color-interpolation-filters="sRGB">
            <feFlood flood-opacity="0" result="BackgroundImageFix"/>
            <feBlend mode="normal" in="SourceGraphic" in2="BackgroundImageFix" result="shape"/>
            <feGaussianBlur stdDeviation="6" result="effect1_foregroundBlur_0_35843"/>
        </filter>
        <filter id="filter6_i_0_35843" x="77.0004" y="112.875" width="27" height="27.75" filterUnits="userSpaceOnUse" color-interpolation-filters="sRGB">
            <feFlood flood-opacity="0" result="BackgroundImageFix"/>
            <feBlend mode="normal" in="SourceGraphic" in2="BackgroundImageFix" result="shape"/>
            <feColorMatrix in="SourceAlpha" type="matrix" values="0 0 0 0 0 0 0 0 0 0 0 0 0 0 0 0 0 0 127 0" result="hardAlpha"/>
            <feOffset dy="0.75"/>
            <feGaussianBlur stdDeviation="1.5"/>
            <feComposite in2="hardAlpha" operator="arithmetic" k2="-1" k3="1"/>
            <feColorMatrix type="matrix" values="0 0 0 0 0.139757 0 0 0 0 0.367515 0 0 0 0 0.958333 0 0 0 1 0"/>
            <feBlend mode="normal" in2="shape" result="effect1_innerShadow_0_35843"/>
        </filter>
        <filter id="filter7_dii_0_35843" x="80.7504" y="115.875" width="19.5" height="21" filterUnits="userSpaceOnUse" color-interpolation-filters="sRGB">
            <feFlood flood-opacity="0" result="BackgroundImageFix"/>
            <feColorMatrix in="SourceAlpha" type="matrix" values="0 0 0 0 0 0 0 0 0 0 0 0 0 0 0 0 0 0 127 0" result="hardAlpha"/>
            <feOffset dy="1.5"/>
            <feGaussianBlur stdDeviation="1.5"/>
            <feColorMatrix type="matrix" values="0 0 0 0 0.0501389 0 0 0 0 0.109367 0 0 0 0 0.316667 0 0 0 0.4 0"/>
            <feBlend mode="normal" in2="BackgroundImageFix" result="effect1_dropShadow_0_35843"/>
            <feBlend mode="normal" in="SourceGraphic" in2="effect1_dropShadow_0_35843" result="shape"/>
            <feColorMatrix in="SourceAlpha" type="matrix" values="0 0 0 0 0 0 0 0 0 0 0 0 0 0 0 0 0 0 127 0" result="hardAlpha"/>
            <feOffset dy="1.5"/>
            <feGaussianBlur stdDeviation="1.125"/>
            <feComposite in2="hardAlpha" operator="arithmetic" k2="-1" k3="1"/>
            <feColorMatrix type="matrix" values="0 0 0 0 0.811765 0 0 0 0 0.898039 0 0 0 0 1 0 0 0 1 0"/>
            <feBlend mode="normal" in2="shape" result="effect2_innerShadow_0_35843"/>
            <feColorMatrix in="SourceAlpha" type="matrix" values="0 0 0 0 0 0 0 0 0 0 0 0 0 0 0 0 0 0 127 0" result="hardAlpha"/>
            <feOffset dy="0.75"/>
            <feComposite in2="hardAlpha" operator="arithmetic" k2="-1" k3="1"/>
            <feColorMatrix type="matrix" values="0 0 0 0 1 0 0 0 0 1 0 0 0 0 1 0 0 0 1 0"/>
            <feBlend mode="normal" in2="effect2_innerShadow_0_35843" result="effect3_innerShadow_0_35843"/>
        </filter>
        <linearGradient id="paint0_linear_0_35843" x1="90.125" y1="27" x2="90.125" y2="149.25" gradientUnits="userSpaceOnUse">
            <stop stop-color="white"/>
            <stop offset="1" stop-color="white" stop-opacity="0"/>
        </linearGradient>
        <radialGradient id="paint1_radial_0_35843" cx="0" cy="0" r="1" gradientUnits="userSpaceOnUse" gradientTransform="translate(165.192 97.5886) scale(5.74786)">
            <stop stop-color="#808499"/>
            <stop offset="0.476642" stop-color="#444F62"/>
            <stop offset="0.740314" stop-color="#293245"/>
            <stop offset="1" stop-color="#3F4657"/>
        </radialGradient>
        <radialGradient id="paint2_radial_0_35843" cx="0" cy="0" r="1" gradientUnits="userSpaceOnUse" gradientTransform="translate(14.3644 67.1652) scale(8.47086)">
            <stop stop-color="#EAEDF6"/>
            <stop offset="1" stop-color="#AEB9D1"/>
        </radialGradient>
        <linearGradient id="paint3_linear_0_35843" x1="6.93711" y1="72.5964" x2="22.3045" y2="74.7933" gradientUnits="userSpaceOnUse">
            <stop stop-color="#DEEEFF"/>
            <stop offset="1" stop-color="#7A97BE"/>
        </linearGradient>
        <linearGradient id="paint4_linear_0_35843" x1="106.539" y1="33.4672" x2="70.1786" y2="146.421" gradientUnits="userSpaceOnUse">
            <stop stop-color="#070707"/>
            <stop offset="0.582015" stop-color="#232528"/>
            <stop offset="1" stop-color="#3C4149"/>
        </linearGradient>
        <linearGradient id="paint5_linear_0_35843" x1="50.5886" y1="49.0226" x2="73.6752" y2="129.535" gradientUnits="userSpaceOnUse">
            <stop stop-color="#8A909F"/>
            <stop offset="1" stop-color="#545A6F"/>
        </linearGradient>
        <linearGradient id="paint6_linear_0_35843" x1="75.8754" y1="84.375" x2="75.8754" y2="94.125" gradientUnits="userSpaceOnUse">
            <stop stop-color="#8A909F"/>
            <stop offset="1" stop-color="#757A8F"/>
        </linearGradient>
        <linearGradient id="paint7_linear_0_35843" x1="76.6254" y1="83.625" x2="76.6254" y2="93.375" gradientUnits="userSpaceOnUse">
            <stop stop-color="#8A909F"/>
            <stop offset="1" stop-color="#757A8F"/>
        </linearGradient>
        <linearGradient id="paint8_linear_0_35843" x1="107.589" y1="49.0226" x2="130.675" y2="129.535" gradientUnits="userSpaceOnUse">
            <stop stop-color="#8A909F"/>
            <stop offset="1" stop-color="#545A6F"/>
        </linearGradient>
        <linearGradient id="paint9_linear_0_35843" x1="105.125" y1="84.375" x2="105.125" y2="94.125" gradientUnits="userSpaceOnUse">
            <stop stop-color="#8A909F"/>
            <stop offset="1" stop-color="#757A8F"/>
        </linearGradient>
        <linearGradient id="paint10_linear_0_35843" x1="104.375" y1="83.625" x2="104.375" y2="93.375" gradientUnits="userSpaceOnUse">
            <stop stop-color="#8A909F"/>
            <stop offset="1" stop-color="#757A8F"/>
        </linearGradient>
        <linearGradient id="paint11_linear_0_35843" x1="106.97" y1="131.438" x2="75.3804" y2="131.438" gradientUnits="userSpaceOnUse">
            <stop offset="0.0558076" stop-color="#365CE0"/>
            <stop offset="0.817097" stop-color="#1040C7"/>
            <stop offset="1" stop-color="#1F5BFF"/>
        </linearGradient>
        <radialGradient id="paint12_radial_0_35843" cx="0" cy="0" r="1" gradientUnits="userSpaceOnUse" gradientTransform="translate(97.6625 113.949) rotate(99.8668) scale(29.6144 31.7128)">
            <stop stop-color="#A9D4FD"/>
            <stop offset="0.311751" stop-color="#3994FF"/>
            <stop offset="0.553576" stop-color="#238FFF"/>
            <stop offset="0.883872" stop-color="#45B0FF"/>
        </radialGradient>
        <radialGradient id="paint13_radial_0_35843" cx="0" cy="0" r="1" gradientUnits="userSpaceOnUse" gradientTransform="translate(103.375 108.316) rotate(122.962) scale(11.2203 18.4992)">
            <stop stop-color="#82B7F5"/>
            <stop offset="1" stop-color="#9DCEFB" stop-opacity="0"/>
        </radialGradient>
        <linearGradient id="paint14_linear_0_35843" x1="90.5004" y1="117.375" x2="90.5004" y2="131.999" gradientUnits="userSpaceOnUse">
            <stop stop-color="#F2F8FF"/>
            <stop offset="1" stop-color="white"/>
        </linearGradient>
        <linearGradient id="paint15_linear_0_35843" x1="115.331" y1="8.33757" x2="113.212" y2="14.5954" gradientUnits="userSpaceOnUse">
            <stop stop-color="#8C95A6"/>
            <stop offset="1" stop-color="#B2BACB"/>
        </linearGradient>
        <clipPath id="clip0_0_35843">
            <rect width="180" height="180" fill="white" transform="translate(0.5)"/>
        </clipPath>
    </defs>
</svg>
