<svg width="14" height="15" viewBox="0 0 14 15" fill="none" xmlns="http://www.w3.org/2000/svg">
<g id="Frame" clip-path="url(#clip0_8486_109412)">
<path id="Vector" d="M11.1123 5.28635H10.3205V4.17952C10.3205 3.29887 9.97063 2.4543 9.34792 1.83159C8.72521 1.20887 7.88063 0.859039 6.99998 0.859039C6.11934 0.859039 5.27476 1.20887 4.65205 1.83159C4.02934 2.4543 3.6795 3.29887 3.6795 4.17952V5.28635H2.8877C2.5106 5.28635 2.14895 5.43615 1.8823 5.7028C1.61565 5.96944 1.46585 6.3311 1.46585 6.70819V12.7276C1.4681 13.1032 1.61889 13.4627 1.8853 13.7275C2.1517 13.9923 2.51207 14.141 2.8877 14.141H11.1208C11.4949 14.1387 11.8531 13.9891 12.1177 13.7245C12.3823 13.46 12.5319 13.1018 12.5341 12.7276V6.70819C12.5341 6.3311 12.3843 5.96944 12.1177 5.7028C11.851 5.43615 11.4894 5.28635 11.1123 5.28635ZM4.78633 4.17952C4.78633 3.59242 5.01955 3.02937 5.43469 2.61423C5.84984 2.19909 6.41289 1.96587 6.99998 1.96587C7.58708 1.96587 8.15013 2.19909 8.56527 2.61423C8.98041 3.02937 9.21364 3.59242 9.21364 4.17952V5.28635H4.78633V4.17952ZM11.4273 12.6936C11.4273 12.7345 11.4191 12.7751 11.4032 12.8129C11.3872 12.8506 11.3639 12.8848 11.3345 12.9134C11.3052 12.9419 11.2704 12.9643 11.2322 12.9792C11.194 12.9941 11.1532 13.0012 11.1123 13.0001H2.8877C2.84674 13.0012 2.80596 12.9941 2.76779 12.9792C2.72961 12.9643 2.69481 12.9419 2.66544 12.9134C2.63607 12.8848 2.61273 12.8506 2.5968 12.8129C2.58086 12.7751 2.57266 12.7345 2.57268 12.6936V6.70819C2.57268 6.62464 2.60587 6.54452 2.66494 6.48544C2.72402 6.42636 2.80415 6.39317 2.8877 6.39317H11.1123C11.1958 6.39317 11.2759 6.42636 11.335 6.48544C11.3941 6.54452 11.4273 6.62464 11.4273 6.70819V12.6936Z" fill="white"/>
<path id="Vector_2" d="M6.99998 8.05341C6.8532 8.05341 6.71244 8.11171 6.60865 8.2155C6.50487 8.31928 6.44656 8.46004 6.44656 8.60682V10.8205C6.44656 10.9672 6.50487 11.108 6.60865 11.2118C6.71244 11.3156 6.8532 11.3739 6.99998 11.3739C7.14675 11.3739 7.28751 11.3156 7.3913 11.2118C7.49508 11.108 7.55339 10.9672 7.55339 10.8205V8.60682C7.55339 8.46004 7.49508 8.31928 7.3913 8.2155C7.28751 8.11171 7.14675 8.05341 6.99998 8.05341Z" fill="white"/>
</g>
<defs>
<clipPath id="clip0_8486_109412">
<rect width="14" height="14" fill="white" transform="translate(0 0.5)"/>
</clipPath>
</defs>
</svg>
