<svg width="18" height="18" viewBox="0 0 18 18" fill="none"><path fill-rule="evenodd" clip-rule="evenodd" d="M4 2.5C2.067 2.5 0.5 4.067 0.5 6V12C0.5 13.933 2.067 15.5 4 15.5H14C15.933 15.5 17.5 13.933 17.5 12V6C17.5 4.067 15.933 2.5 14 2.5H4ZM1.5 6C1.5 4.61929 2.61929 3.5 4 3.5H14V14.5H4C2.61929 14.5 1.5 13.3807 1.5 12V6ZM15 5.5C15 5.22386 15.2239 5 15.5 5C15.7761 5 16 5.22386 16 5.5V6.5C16 6.77614 15.7761 7 15.5 7C15.2239 7 15 6.77614 15 6.5V5.5ZM15.5 8C15.2239 8 15 8.22386 15 8.5V12.5C15 12.7761 15.2239 13 15.5 13C15.7761 13 16 12.7761 16 12.5V8.5C16 8.22386 15.7761 8 15.5 8ZM10.8 8.30718C11.3333 8.6151 11.3333 9.3849 10.8 9.69282L7.2 11.7713C6.66667 12.0792 6 11.6943 6 11.0785L6 6.92154C6 6.3057 6.66667 5.9208 7.2 6.22872L10.8 8.30718Z" fill="#3586FF"></path></svg>