<svg width="26" height="26" viewBox="0 0 26 26" fill="none" xmlns="http://www.w3.org/2000/svg">
<g opacity="0.95" filter="url(#filter0_b_6895_126032)">
<circle cx="13" cy="13" r="13" fill="#EFF1F7"/>
<circle cx="13" cy="13" r="12.5" stroke="white"/>
</g>
<path d="M8.5 7H17" stroke="#3586FF" stroke-width="1.5" stroke-linecap="round"/>
<path d="M12 20C12 20.4142 12.3358 20.75 12.75 20.75C13.1642 20.75 13.5 20.4142 13.5 20L12 20ZM13.2803 10.4697C12.9874 10.1768 12.5126 10.1768 12.2197 10.4697L7.4467 15.2426C7.15381 15.5355 7.15381 16.0104 7.4467 16.3033C7.73959 16.5962 8.21447 16.5962 8.50736 16.3033L12.75 12.0607L16.9926 16.3033C17.2855 16.5962 17.7604 16.5962 18.0533 16.3033C18.3462 16.0104 18.3462 15.5355 18.0533 15.2426L13.2803 10.4697ZM13.5 20L13.5 11L12 11L12 20L13.5 20Z" fill="#3586FF"/>
<defs>
<filter id="filter0_b_6895_126032" x="-4" y="-4" width="34" height="34" filterUnits="userSpaceOnUse" color-interpolation-filters="sRGB">
<feFlood flood-opacity="0" result="BackgroundImageFix"/>
<feGaussianBlur in="BackgroundImageFix" stdDeviation="2"/>
<feComposite in2="SourceAlpha" operator="in" result="effect1_backgroundBlur_6895_126032"/>
<feBlend mode="normal" in="SourceGraphic" in2="effect1_backgroundBlur_6895_126032" result="shape"/>
</filter>
</defs>
</svg>
